<?xml version="1.0" encoding="utf-8"?>
<!-- Generator: Adobe Illustrator 21.0.2, SVG Export Plug-In . SVG Version: 6.00 Build 0)  -->
<svg version="1.1" id="图层_3" xmlns="http://www.w3.org/2000/svg" xmlns:xlink="http://www.w3.org/1999/xlink" x="0px" y="0px"
	 viewBox="0 0 837.8 487.8" style="enable-background:new 0 0 837.8 487.8;" xml:space="preserve">
<style type="text/css">
	.st0{clip-path:url(#SVGID_2_);}
	.st1{fill:#707070;}
	.st2{fill:#4A7FC1;}
</style>
<title>Global1</title>
<g>
	<defs>
		<rect id="SVGID_1_" x="22.4" y="15.6" width="772.8" height="459.8"/>
	</defs>
	<clipPath id="SVGID_2_">
		<use xlink:href="#SVGID_1_"  style="overflow:visible;"/>
	</clipPath>
	<g class="st0">
		<path class="st1" d="M-112.9,509.7c-8.6-9.8-11-23.8-9.3-36.7s7.1-25,12.7-36.7c3.4-7.3,12-15.8,17.9-10.3
			c-0.1-5.5,1-12.6,6.4-13.7c1.5-0.3,3,0,4.5-0.2c6.9-0.9,8.4-10,8.6-16.8s3.1-16,10-15.4c3.1,0.3,5.6,2.7,8.7,3c4.3,0.5,8-3,11-6.2
			c15.8-16.5,34.2-30.3,54.5-40.9c6,1.9,12.6-0.3,16.2-5.5l6.6,4.5c1.7-3.2,4.9-5.5,8.5-6.1c6.5,4.9,15.2,6,22.7,2.7l-5.3,8.6
			c9.1,7,24,4.6,30.4-5c16.4,6.8,34.9-0.5,51.1-7.6c31.3-13.8,63.3-28.1,87.8-52c7.2-7.1,14-15.1,23.4-18.9
			c12.2-4.9,26.4-1.6,38.8-5.9c15.3-5.3,24.9-21.1,39.9-27.3c15.9-6.6,34.4-1.2,50.9-6c14.5-4.2,26.7-16,41.8-16.9
			c10.5-0.6,20.5,4.3,30.5,7.4s22.3,3.9,29.9-3.4c2.1-2,3.9-4.6,6.7-5.7c8.6-3.3,18.3,10.9,25.5,5.2c3.1,1.7,7.3,0.3,10.8,0
			c-1.9,4.1,2.6,9,7.1,9s8.4-3.4,11-7.2s4.3-8,7.2-11.6c8.2-10,25-13.5,27.1-26.2c0.6-3.5,0.4-8.1,3.7-9.3c4.3-1.5,8,5,12.5,4
			c1.6-0.4,2.8-1.7,3.9-3l19-22l2-2.4c4.8-5.6,9.7-11.3,15-16.5c2.7-2.6,5.6-5.3,9.3-6c2.1-0.2,4.2-0.2,6.3,0
			c13.2,0.3,25.4-11.4,25.8-24.6c0.1-3-0.4-5.9-1.6-8.6c-1.2-2.5-3-4.6-4.5-7c-5.9-9.6-4.2-23.3,4-31.2c2.7-2.6,6-4.7,7.4-8.2
			c1.2-3,0.7-6.8,3-9c2.7-2.7,7.5-1.6,10.7-3.7c7-4.7,0-19.6,7.9-22.6c1.8-0.7,4.5-0.8,4.9-2.8c0.2-1.1-0.5-2.1-1.1-3.1
			c-3.1-5.7,0.6-12.7,5.1-17.3s10.2-8.7,12.1-14.8c0.9-2.9,0.9-6.2,2.8-8.6c2-2.6,5.4-3.4,8.4-4.7c6-2.7,10.6-7.8,12.7-14.1
			c7.6-6.5,20.9,0.7,30.3-2.4c3.1-1,6.3-3.3,9.4-2.2c1.3,0.6,2.5,1.3,3.6,2.2c5.6,3.2,12.5-0.8,17.7-4.7c6-4.5,12.3-9.3,15.5-16.1
			c3.5-7.3,3-15.7,2.5-23.8c-0.1-2,2.3-25.1,0.4-24.7c-369.3-11.3-742.9-1.4-1112.2,0.2c-14.6,0.1-47.5-3-53.8,10.1
			c-2.4,5-4.3,17-4.5,22.5c-5.4,165.3-10.2,326.7-15.6,492c-1.1,34.2-7.1,133.7,2.3,166.6c9.4,32.9,52.5,1.8,84.4,13.9
			c20.8,7.9,43.8,7,65.9,4.8C-170.8,567.6-114.8,543-112.9,509.7z"/>
		<path class="st1" d="M78.8,427.7c0.7,0,1.5,0.1,2.2,0.4l12.2,4.1c-1.5-2.1-0.6-5.1,1.3-6.9s4.4-2.4,6.9-3.1c1.3-0.3,2.6-0.7,3.8,0
			c0.7,0.5,1.3,1,1.9,1.6c2.5,1.8,5.8,0,8.3-1.7c1.5,2.4,2.5,5,3.1,7.8l0.6-4.6l9.3-4.2c4.7-2.1,10.2-4.3,14.9-2.2
			c3.3,1.4,5.4,4.6,7.4,7.5c1.5-0.2,1.8-2.5,1-3.8s-2.2-2.3-2.6-3.8c-0.3-0.9-0.2-1.8,0.2-2.6c1.5-3,6.2-2.3,8.8-0.2
			s4.9,5.1,8.3,5.7c1.5,0.2,3.1-0.1,4.4,0.5c1.8,0.8,2.7,2.8,3.3,4.6c2.4,6.3,4.6,14.1,0.3,19.3c-2.8,3.5-7.6,4.6-10.8,7.7
			c-1.6,1.7-3,3.6-4,5.7c-5.7,10.3-10.7,21.1-14.9,32.2c1.7,0,3.1,1.3,3.2,3c-4.2,2.6-5.7,9.1-10.5,9.8c-1.2,0-2.4,0.1-3.6,0.3
			c-2,0.5-3.2,2.3-4.4,4c-5.2,7.2-12,13.1-19.9,17.2c-3.5,2-7.4,3.2-11.5,3.5c-5.3,0.2-10.3-2.1-15.6-2c-3.8,0.1-7.5,1.4-11.3,1
			c-5.3-0.6-9.7-4.6-14.9-5.4c-3.4-0.5-7.2,0.2-9.9-1.9c-3.3-2.5-3-7.3-3.7-11.4c-1.2-7.6-6.6-14.4-6.2-22.1
			c0.2-4.8,2.6-9.6,1.5-14.2c-0.4-1.5-1.1-2.9-1.4-4.4c-0.7-3.5,1.1-7,3.4-9.8c6.9-8.9,17.3-13.4,28-16.1c6.1-1.6,4.5-0.8,4.8-5.7
			C72.8,433.8,73.5,428.2,78.8,427.7z"/>
		<path class="st1" d="M728.2,134.6c-6.8,10-13.1,20.4-19.3,30.8L691,195.1c-2,3.4-4.1,6.8-4.8,10.6c-1.2,5.7,0.6,11.6-0.3,17.3
			s-4.2,11.2-2.7,16.6c0.2,0.8,0.6,1.6,0.9,2.4l1.2,2.8l7.6,17.9c1.8,4.3,3.7,8.7,6.7,12.3c3.3,4,7.9,6.8,11.5,10.5
			c6.5,6.9,9.4,16.4,7.9,25.7c4-2,8.2-3.4,12.6-4.1c-1.3-6.4-2.5-13.2-0.3-19.3c1.8-5.1,5.9-9.5,6.4-14.9c0.2-1.7-0.1-3.5,0.6-5.1
			c0.8-2.1,2.9-3.4,4.8-4.8c8.4-6.3,12.4-16.8,16.1-26.6c4.2-11.2,8.3-22.5,10.7-34.2c1.6-8,2.4-16.2,4.7-24.1s6.2-15.2,10.2-22.4
			c3-5.3,6.1-11.5,3.9-17.1c-1-2.7-3.3-5.7-1.9-8.3c1.1-2,3.8-2.4,5.6-3.8c4.3-3.2,2.2-10.5-2.2-13.7s-10-3.9-14.8-6.4
			s-8.9-5.9-14-2.1c-3.7,2.7-5,5.1-9.3,7.2C741.8,116.4,734.6,125.2,728.2,134.6z"/>
		<path class="st1" d="M782.9,372c-1.1,4-1.6,8.1-1.3,12.2c1.8-1.1,2.9-2.9,3.2-5c0.3-2,0.3-4.1,0-6.1c0-0.5-0.2-1-0.5-1.3
			c-0.7-0.6-1.7,0.1-2.2,0.9s-0.6,1.7-1.3,2.3"/>
		<path class="st1" d="M789.1,395.2c-3.3,4.2-6.2,8.8-8.5,13.6c-0.4,0.7-0.6,1.5-0.6,2.3c0.2,1.5,2.1,2.3,3.6,1.9
			c1.5-0.5,2.7-1.4,3.7-2.6c3.6-3.8,7-8.2,7.9-13.3c-1.2-1.9-4-2.1-5.9-0.9s-3,3.2-3.9,5.3"/>
		<path class="st1" d="M756,458.2l0.3,2.3c0.1,1.6,0.5,3.1,1.3,4.5c0.8,1.4,2.3,2.2,3.9,2.1c1.7-0.3,2.7-2.1,3.1-3.7
			c0.7-3-0.1-6.5-2.7-8.3s-6.7-0.9-7.8,1.9"/>
		<path class="st1" d="M745.4,470.6c-1.4,3.4-2.4,6.8-3.2,10.4c-0.1,0.6-0.2,1.3,0.4,1.5c0.4,0.1,0.8,0,1.2-0.2
			c2.6-1.3,5.7-3.4,5.3-6.3c-0.2-1.4-1.2-2.6-2-3.8s-1.3-2.9-0.4-4.1"/>
		<path class="st1" d="M785.4,447c1-1.1,2.2-1.9,3.6-2.4c0.3-0.1,0.7-0.2,1-0.1c0.6,0.2,1,0.8,1.1,1.4c0.7,2.1-0.5,4.4-2.6,5
			c-2,0.6-4.1-0.4-4.9-2.2"/>
		<path class="st1" d="M654.9,203c-0.1,2,0.2,4.1,0.8,6c0.5,1.5,1.9,3.2,3.3,2.5c0.7-0.6,1.1-1.4,1.1-2.3l0.7-4.9
			c0.2-0.8,0.1-1.6-0.5-2.3c-0.3-0.2-0.6-0.3-1-0.4c-1.3-0.4-2.7-0.3-4,0.2c-1.2,0.7-1.7,2.5-0.7,3.4"/>
		<path class="st1" d="M893.4,155.8c2.8,0.2,5.6,0.6,8.3,1.4c0.6,0.1,1.2,0.4,1.7,0.9c0.4,0.5,0.6,1.2,0.6,1.8
			c0.2,2.6,0.2,5.9-2.1,7.2c-1.1,0.5-2.2,0.7-3.4,0.6c-2.2,0-4.5-0.2-6.3-1.6c-2.9-2.3-2.4-7.6,0.9-9.2"/>
		<path class="st1" d="M912.8,152.9l1.8,8.9c0.1,0.8,0.4,1.6,1,2.3c1.4,1.2,3.7-0.4,4.1-2.3s-0.2-3.7,0.1-5.5
			c0.4-2.9,2.6-5.1,4.6-7.1c0.2-0.2,0.4-0.4,0.5-0.7c0.3-0.9-1.1-1.6-1.9-1.2c-0.8,0.5-1.4,1.3-1.8,2.2c-0.7,1.4-1.8,2.5-3.2,3.2
			c-1.4,0.7-3.2,0.3-4.2-0.9"/>
		<path class="st1" d="M746.5,491.7c3.5-1,7.2,0.1,9.7,2.8c-2.8,1.2-6,0.6-8.3-1.5"/>
		<path class="st1" d="M753.3,511.5c-6.7-4.2-14.5-9.6-21.7-6.4c-1.4,0.6-2.8,1.6-4.3,1.8c-3.4,0.5-6.6-3-10-2.3
			c-2.8,0.5-4.4,3.5-4.6,6.3s0.4,5.6,0.4,8.4c-0.2,5.9-3.7,12-1.3,17.4c1.9,4.2,6.8,6.2,11.3,6.6s9.2-0.6,13.8-0.4
			c8.5,0.3,16.5,4.3,25,5.4c13.8,1.7,27.4-4.7,39-12.4c2.9-1.9,5.8-4.1,7.6-7s2.2-7,0.2-9.9c-0.7-1-1.7-1.8-2.1-3
			c-0.1-1-0.2-2.1-0.2-3.1c-0.6-3.5-5.8-4.1-8.8-2c-6.9,4.9-8.4,14.3-18.8,11.7C769.9,520.2,761.2,516.5,753.3,511.5z"/>
		<path class="st1" d="M452.2,360c0.5-3.1,2.2-5.9,4.7-7.9c0.3-0.3,0.7-0.5,1.2-0.6c1.1-0.1,1.9,1.1,2.2,2.2
			c0.7,2.1,0.3,4.4-0.9,6.2c-1.4,1.7-4.2,2.3-5.8,0.9"/>
		<path class="st1" d="M499.4,376.5c1.3,1.4,4.2,0.8,5,2.6c0.6,1.3-0.4,2.6-1.4,3.6l-4.3,4.5c1.8,2.1,4.8,2.3,6.9,0.6
			c1.2-1,1.9-2.6,1.7-4.2c-0.1-1.1-0.6-2.2-1.2-3.1c-1.2-1.6-2.9-2.8-4.8-3.3"/>
		<path class="st2" d="M157.8,369.4c-3.2,2-7.1,2.8-10.9,2.2c-2,2.4-1.7,6-0.4,8.8s3.5,5.2,5.1,7.8c3,4.8,4.3,10.5,3.8,16.1
			c0,1-0.4,2-1,2.9c-1,1.2-2.9,1.4-4.5,1.5c-14.5,1.4-28.6,13-42,7.6c4.3-3.8,5.7-10,3.3-15.3c-1.3-2.7-3.4-4.8-5.2-7.1
			c-6.5-8.3-9.4-18.8-8.1-29.2c1-7.2,4-14,5.8-21.1s2.5-15-1.1-21.4c1.8-4.2,9.1,2.9,12.5-0.2c2.3-2.1-0.4-5.8,0-8.9
			c0.5-4.4,6.7-5.3,11-4s9,3.6,12.9,1.4l-2.1-7.6c-0.9-3.4-1.8-7.3,0.3-10.1s8-1.7,7.4,1.7c3.4-1.2,7.1-1.7,10.8-1.6l-1.8-4.7
			c2.6-0.6,5.1-1.6,7.3-3c-3.2-2.9-4.4-7.4-2.9-11.5c2.8-7.5,12.5-9.1,20.5-9.6v-5.4c6.4,3.1,13.9-3.1,15.9-10s0.6-14.2,1.3-21.3
			c0.7-6.5,3.2-12.7,5.7-18.8c0.5-1.5,1.3-2.9,2.5-3.9c0.9-0.6,2.1-0.9,3.1-1.5c2-1.2,2.7-3.7,3.3-5.9s1.3-4.7,3.2-6
			s5.3-0.2,5.2,2.1c3.2-5.8,6.6-12.1,6-18.8c-0.3-3.4-1.4-7.5,1.1-9.9c1.2-1.1,2.8-1.4,4-2.4c3.3-2.5,2.4-7.8,0.6-11.6
			s-4.2-7.8-2.8-11.8c2.2-6.2,12.6-8.1,12.1-14.6c-0.2-1.9-1.3-3.5-1.6-5.3c-0.9-4.3,2.6-8.4,6.7-9.9s8.6-0.9,12.9-0.3
			c4.9,0.6,10.6,1.9,12.4,6.5c0.8,1.9,0.7,4,1.4,5.8c2,5.1,10.7,5.4,13,0.4s-1.5-12.1,2.1-16.4c-2.1,0.3-4.3,0.6-6.2-0.3
			s-3.1-3.6-1.8-5.2c2.1-2.6,6.3,0.5,9.6,0c3-0.5,4.5-3.7,6-6.4s4.4-5.4,7.1-4c1,0.6,1.8,1.4,2.5,2.4c2.7,3.1,6.8,4.6,10.6,6
			c2.6,1,5.4,1.9,8.2,1.6c4.3-0.6,9.8-3.9,12.2-0.3l5.7-8.3c3.3,3.3,4.5,8.1,3,12.5c11.1-1.1,22-4,32.2-8.7c1.2,3.7,8.2,3.8,8.2,7.8
			c0,1.8-1.7,3.2-2,5c-0.3,2.2,1.7,4.7,0.4,6.6c-0.9,1.4-2.8,1.4-4.5,1.5c-6.2,0.5-11.4,4.8-13.2,10.7c-0.5,1.8-0.7,3.8-1.3,5.6
			c-1.7,4.6-6.4,7.2-10.8,9.4c3.8-0.1,7.2,2.7,7.8,6.5c0.2-1.9,3-2,4.5-0.9s2.6,2.9,4.4,3.3c2.2,0.5,4.2-1.3,6.1-2.6
			c4.1-2.9,9.1-4.1,14-3.3c1.7,0.3,3.6,0.7,5-0.2c0.9-0.6,1.4-1.7,2.2-2.5c0.8-0.6,1.8-1.1,2.8-1.3l21.5-6.3
			c1.7-0.7,3.6-0.9,5.4-0.7c4.3,0.8,6.2,5.7,7.3,9.9c0.7,2.4,4,4.5,6.3,5.5s5.7-0.4,5.6-2.9c-3.2-5.3-6.4-12.4-2.5-17.2
			c3.9-4.8,11.8-3.2,17.7-1l6.3,2.4c2.7,2.6,7,0.5,10.1-1.7c2.1,10.2,15.4,16.2,24.5,11c-2.3,4.3-0.7,9.7,1.8,14s5.8,8.2,6.9,13
			c1.6,6.7-1.4,13.9,0.3,20.6c2.5,9.5,14,15.8,13.4,25.6c-0.1,1.6-0.5,3.2,0,4.6c0.9,2.7,4.3,3.4,6.7,4.9s3.5,6,0.7,6.5
			c-0.5,0.1-1.1,0-1.6-0.1c-3.5-0.9-6.4-3.4-9.3-5.7s-6.2-4.4-9.8-4.4s-7.5,3.3-6.7,6.9c0.3,1.2,1,2.4,0.7,3.5
			c-0.6,2.5-4.3,1.9-6.8,2.4c-8.6,1.4-6.5,17-14.6,20.2c-4.6,1.8-10-1.7-14.8-0.3c-1.7,0.6-3.3,1.5-4.8,2.6
			c-6.6,4.3-14.4,6.5-22.3,6.3c-1.5,0-3.1-0.1-4.4,0.8c-1.6,1.1-1.9,3.4-3.2,4.9c-2.8,3.5-8.5,1.6-12-1.2s-6.9-6.7-11.3-6.5
			c-5.5,0.2-8.6,6-11.7,10.6s-9.7,8.6-13.5,4.6c-1.7-1.7-4.1-4.8-5.5-2.8c0,3.4,0.4,6.9,1.3,10.2c-4.8,3-10.3-2.3-15.1-5.4
			c-11-7.3-28.2-0.9-31.9,11.7c-0.6,2.2-0.8,4.9,0.8,6.6c1.1,1,2.5,1.6,3.9,1.7c8.2,1.2,17.1-3.3,24.7,0.1c0.9,0.3,1.7,1,2.2,1.8
			c1.5,2.6-1.8,5.6-4.8,5.8s-6.1-0.8-8.9,0.1c-5.9,2.1-7.2,11.8-13.4,12.3c-2.4,0.2-4.6-1.2-6.7-2.5l-14.7-9.7
			c-5.4,7.7-14.2,12.4-23.7,12.6c-6.3,0-7,11.7-12,15.4c-6.7,5-17.7-3.1-24.3,2c-2.9,2.3-5.7,7-8.8,5.1c-2.7-1.6-1.7-6.9-4.8-7.6
			c-1-0.1-2.1,0-3,0.5c-7.5,2.9-15.7,3.9-23.7,2.9c-5.6-0.7-11.8-2.3-16.5,0.9c-1.4,1.1-2.7,2.3-3.9,3.6c-4.2,3.7-10.1,4.6-15.7,5.4
			c-3.3-3.4-10.4-3.5-14.8-1.8s-7.7,5.5-9.9,9.6c-0.6,1.1-1.1,2.4-1.3,3.7C154.1,359.3,158.4,364.9,157.8,369.4z"/>
	</g>
</g>
</svg>

