<svg id="图层_3" data-name="图层 3" xmlns="http://www.w3.org/2000/svg" xmlns:xlink="http://www.w3.org/1999/xlink" viewBox="0 0 1284.56 716.94"><defs><style>.cls-1{fill:none;}.cls-2{clip-path:url(#clip-path);}.cls-3{fill:#707070;}.cls-4{fill:#4a7fc1;}</style><clipPath id="clip-path" transform="translate(0 0.02)"><rect class="cls-1" x="382" y="160" width="772.82" height="459.77"/></clipPath></defs><title>Global1</title><g class="cls-2"><path class="cls-3" d="M246.71,654.12c-8.57-9.78-11-23.79-9.27-36.68s7.13-25,12.68-36.72c3.45-7.3,12-15.76,17.92-10.32-.12-5.49,1-12.63,6.39-13.67,1.48-.29,3,0,4.51-.19,6.85-.88,8.4-10,8.58-16.85s3.14-16,10-15.41c3.07.28,5.62,2.65,8.68,3,4.34.52,8-3,11-6.18a209,209,0,0,1,54.46-40.86,14.49,14.49,0,0,0,16.23-5.52l6.62,4.53a11.76,11.76,0,0,1,8.48-6.09,22.57,22.57,0,0,0,22.71,2.67l-5.34,8.57c9.13,7,24,4.57,30.41-5,16.38,6.77,34.87-.47,51.09-7.64,31.29-13.83,63.3-28.14,87.76-52,7.22-7.06,14-15.12,23.4-18.89,12.18-4.91,26.38-1.61,38.78-5.92,15.31-5.32,24.94-21.06,39.9-27.28,15.87-6.59,34.41-1.22,50.92-6,14.53-4.19,26.68-16,41.78-16.86,10.52-.59,20.45,4.31,30.53,7.38s22.29,3.89,29.94-3.35c2.14-2,3.9-4.65,6.65-5.69,8.56-3.25,18.29,10.9,25.47,5.22,3.13,1.66,7.31.32,10.84,0-1.87,4.14,2.59,9,7.13,9s8.39-3.43,11-7.18,4.3-8,7.18-11.56c8.17-10,25-13.47,27.07-26.19.56-3.5.4-8.12,3.73-9.32,4.26-1.54,8,5,12.46,4,1.62-.37,2.82-1.7,3.91-3l19-22,2-2.35c4.85-5.62,9.71-11.25,15-16.5,2.65-2.64,5.61-5.3,9.3-6a32.36,32.36,0,0,1,6.33,0c13.15.26,25.38-11.4,25.75-24.55a18.91,18.91,0,0,0-1.63-8.61c-1.18-2.5-3-4.62-4.48-7-5.94-9.64-4.21-23.32,4-31.18,2.67-2.57,6-4.71,7.38-8.16,1.17-3,.73-6.76,3-9,2.71-2.72,7.54-1.55,10.73-3.69,7-4.71,0-19.55,7.88-22.61,1.85-.72,4.52-.83,4.89-2.78.21-1.08-.53-2.09-1.06-3.06-3.1-5.67.61-12.7,5.14-17.3s10.21-8.66,12.13-14.83c.9-2.89.93-6.16,2.76-8.57,2-2.61,5.45-3.43,8.45-4.74a23.28,23.28,0,0,0,12.65-14.13c7.57-6.46,20.86.72,30.32-2.37,3.14-1,6.31-3.3,9.43-2.23a22.61,22.61,0,0,1,3.64,2.18c5.63,3.21,12.51-.84,17.69-4.74,6-4.53,12.27-9.33,15.53-16.13,3.48-7.27,3-15.73,2.5-23.78-.13-2,2.34-25.14.36-24.7C819.75-6,446.09,3.91,76.81,5.53,62.23,5.6,29.33,2.56,23,15.67c-2.4,5-4.32,17-4.5,22.5-5.36,165.3-10.19,326.7-15.56,492-1.11,34.16-7.1,133.7,2.29,166.57s52.47,1.77,84.44,13.86c20.8,7.86,43.79,7,65.91,4.77C188.73,712,244.8,687.4,246.71,654.12Z" transform="translate(0 0.02)"/><path class="cls-3" d="M438.4,572.13a5.32,5.32,0,0,1,2.17.41l12.24,4.14c-1.5-2.06-.61-5.13,1.25-6.86s4.42-2.44,6.88-3.1c1.25-.34,2.64-.66,3.79,0a17.84,17.84,0,0,1,1.87,1.56c2.45,1.77,5.81,0,8.27-1.74A24.72,24.72,0,0,1,478,574.3l.65-4.59,9.33-4.19c4.73-2.13,10.17-4.27,14.93-2.2,3.28,1.43,5.43,4.56,7.41,7.54,1.55-.18,1.81-2.46,1-3.8s-2.19-2.34-2.65-3.83a3.51,3.51,0,0,1,.2-2.57c1.49-3,6.18-2.29,8.85-.2s4.92,5.14,8.27,5.65c1.48.22,3.06-.09,4.43.5,1.79.76,2.65,2.76,3.33,4.58,2.39,6.33,4.6,14.07.34,19.33-2.8,3.46-7.61,4.63-10.84,7.7a23,23,0,0,0-4,5.7,245.12,245.12,0,0,0-14.9,32.17,3.32,3.32,0,0,1,3.23,3c-4.19,2.57-5.69,9.09-10.55,9.82a35.07,35.07,0,0,0-3.59.25c-2,.5-3.22,2.32-4.4,4a58.2,58.2,0,0,1-19.91,17.24,26.68,26.68,0,0,1-11.5,3.53c-5.25.15-10.34-2.1-15.59-2-3.8.1-7.55,1.44-11.32,1-5.28-.6-9.68-4.57-14.93-5.39-3.36-.53-7.17.19-9.9-1.86-3.3-2.47-3-7.34-3.7-11.41-1.21-7.61-6.56-14.4-6.23-22.1.21-4.8,2.65-9.56,1.49-14.22-.37-1.5-1.11-2.91-1.4-4.43-.66-3.51,1.15-7,3.35-9.84,6.9-8.88,17.34-13.41,28-16.11,6.13-1.56,4.49-.78,4.77-5.7C432.34,578.22,433.08,572.64,438.4,572.13Z" transform="translate(0 0.02)"/><path class="cls-3" d="M1087.8,279c-6.81,10-13.06,20.42-19.31,30.8l-17.9,29.75c-2,3.35-4.07,6.79-4.85,10.63-1.15,5.68.6,11.6-.27,17.33s-4.2,11.17-2.68,16.65a19.73,19.73,0,0,0,.91,2.43l1.2,2.82,7.58,17.85c1.83,4.3,3.72,8.67,6.72,12.25,3.34,4,7.89,6.77,11.49,10.52a30.42,30.42,0,0,1,7.92,25.68,47.66,47.66,0,0,1,12.61-4.15c-1.25-6.39-2.48-13.16-.29-19.3,1.83-5.14,5.95-9.5,6.41-14.93.15-1.72-.08-3.53.55-5.14.83-2.13,2.94-3.42,4.77-4.8,8.4-6.34,12.45-16.76,16.11-26.63,4.16-11.22,8.33-22.49,10.69-34.22,1.61-8,2.37-16.23,4.69-24.07s6.22-15.24,10.23-22.43c3-5.3,6.08-11.47,3.94-17.15-1-2.74-3.27-5.68-1.87-8.26,1.1-2,3.8-2.42,5.63-3.81,4.31-3.24,2.15-10.55-2.21-13.72s-10-3.94-14.81-6.38-8.88-5.91-14-2.1c-3.65,2.7-5,5.1-9.32,7.23C1101.39,260.85,1094.17,269.59,1087.8,279Z" transform="translate(0 0.02)"/><path class="cls-3" d="M1142.5,516.4a37.39,37.39,0,0,0-1.32,12.22,7.18,7.18,0,0,0,3.24-5,21.27,21.27,0,0,0,0-6.11,1.91,1.91,0,0,0-.5-1.33c-.68-.57-1.74.07-2.17.86s-.6,1.74-1.29,2.31" transform="translate(0 0.02)"/><path class="cls-3" d="M1148.67,539.65a72.4,72.4,0,0,0-8.48,13.61,4.1,4.1,0,0,0-.57,2.31c.23,1.51,2.09,2.3,3.58,1.94a7.92,7.92,0,0,0,3.68-2.62c3.58-3.84,7-8.18,7.94-13.33-1.17-1.88-4-2.06-5.92-.91s-3,3.22-3.89,5.25" transform="translate(0 0.02)"/><path class="cls-3" d="M1115.55,602.68l.32,2.3a11.68,11.68,0,0,0,1.27,4.51,4,4,0,0,0,3.93,2.07c1.69-.33,2.73-2.07,3.14-3.74.72-3-.13-6.5-2.65-8.25s-6.66-.93-7.77,1.93" transform="translate(0 0.02)"/><path class="cls-3" d="M1105,615.05a62,62,0,0,0-3.15,10.36c-.12.56-.15,1.3.37,1.55a1.34,1.34,0,0,0,1.15-.19c2.62-1.34,5.67-3.43,5.27-6.35-.2-1.44-1.23-2.59-2-3.82s-1.26-2.9-.41-4.07" transform="translate(0 0.02)"/><path class="cls-3" d="M1145,591.4a8.85,8.85,0,0,1,3.58-2.36,1.88,1.88,0,0,1,1-.14,1.7,1.7,0,0,1,1.12,1.41,4,4,0,0,1-7.49,2.78" transform="translate(0 0.02)"/><path class="cls-3" d="M1014.5,347.4a17.85,17.85,0,0,0,.83,6c.48,1.5,1.91,3.23,3.29,2.47a3,3,0,0,0,1.11-2.34l.68-4.93a2.43,2.43,0,0,0-.46-2.26,2.32,2.32,0,0,0-1-.4,5.76,5.76,0,0,0-4,.24c-1.17.67-1.7,2.52-.66,3.37" transform="translate(0 0.02)"/><path class="cls-3" d="M1253,300.21a40,40,0,0,1,8.34,1.38,3.13,3.13,0,0,1,1.65.86,3.26,3.26,0,0,1,.55,1.82c.24,2.64.19,5.88-2.13,7.18a6.66,6.66,0,0,1-3.39.57c-2.19,0-4.54-.21-6.27-1.56-2.92-2.26-2.38-7.6.93-9.23" transform="translate(0 0.02)"/><path class="cls-3" d="M1272.38,297.35l1.84,8.88a3.76,3.76,0,0,0,1,2.26c1.44,1.17,3.65-.44,4.06-2.25s-.15-3.7.1-5.54c.39-2.87,2.62-5.07,4.64-7.14a1.84,1.84,0,0,0,.5-.71c.28-.93-1.07-1.63-1.95-1.22a4.73,4.73,0,0,0-1.8,2.21,7,7,0,0,1-3.23,3.19,3.66,3.66,0,0,1-4.22-.88" transform="translate(0 0.02)"/><path class="cls-3" d="M1106.06,636.09a9.75,9.75,0,0,1,9.72,2.77,7.74,7.74,0,0,1-8.28-1.46" transform="translate(0 0.02)"/><path class="cls-3" d="M1112.91,655.92c-6.69-4.17-14.51-9.61-21.71-6.4-1.43.64-2.75,1.6-4.3,1.81-3.45.47-6.62-3-10-2.29-2.75.52-4.36,3.52-4.62,6.31s.43,5.58.36,8.38c-.16,5.92-3.66,12-1.25,17.44,1.87,4.2,6.76,6.24,11.35,6.6s9.18-.57,13.77-.41c8.53.3,16.52,4.31,25,5.36,13.85,1.71,27.44-4.65,39-12.41,2.9-1.94,5.81-4.06,7.61-7s2.23-7,.16-9.86c-.72-1-1.72-1.79-2.06-3a27.91,27.91,0,0,1-.21-3.09c-.61-3.53-5.83-4.13-8.75-2-6.91,4.92-8.42,14.28-18.81,11.73A92.56,92.56,0,0,1,1112.91,655.92Z" transform="translate(0 0.02)"/><path class="cls-3" d="M811.78,504.4a12.64,12.64,0,0,1,4.67-7.87,2.47,2.47,0,0,1,1.18-.59c1.14-.13,1.93,1.13,2.23,2.24a7.14,7.14,0,0,1-.92,6.24c-1.36,1.71-4.16,2.3-5.78.85" transform="translate(0 0.02)"/><path class="cls-3" d="M859,520.89c1.35,1.38,4.21.81,5,2.56.57,1.25-.44,2.62-1.38,3.62l-4.26,4.54A4.91,4.91,0,0,0,867,528a6.29,6.29,0,0,0-1.23-3.09,8.68,8.68,0,0,0-4.84-3.31" transform="translate(0 0.02)"/><path class="cls-4" d="M517.4,513.83A15.62,15.62,0,0,1,506.55,516c-2,2.4-1.68,6-.37,8.82s3.45,5.15,5.11,7.78a25.65,25.65,0,0,1,3.79,16.12,5.19,5.19,0,0,1-1,2.89c-1,1.24-2.87,1.36-4.48,1.52-14.46,1.44-28.56,13-42,7.63a13.18,13.18,0,0,0,3.3-15.25c-1.26-2.67-3.4-4.81-5.24-7.11a39,39,0,0,1-8.07-29.21c1-7.24,4-14,5.84-21.11s2.47-15-1.11-21.35c1.83-4.17,9.12,2.88,12.45-.23,2.26-2.11-.38-5.82,0-8.89.55-4.41,6.71-5.3,11-4s9,3.56,12.85,1.35l-2.12-7.63c-.93-3.36-1.77-7.25.28-10.07s8-1.7,7.36,1.72a28.23,28.23,0,0,1,10.75-1.56l-1.8-4.69a23.78,23.78,0,0,0,7.35-3,10.67,10.67,0,0,1-2.94-11.49c2.8-7.52,12.52-9.15,20.53-9.61v-5.44c6.43,3.07,13.94-3.12,15.91-10s.58-14.2,1.33-21.29c.69-6.54,3.19-12.74,5.66-18.84a8.27,8.27,0,0,1,2.55-3.92c.94-.65,2.11-.89,3.08-1.49,2-1.23,2.71-3.69,3.28-5.94s1.27-4.71,3.2-6,5.35-.18,5.18,2.14c3.24-5.81,6.58-12.14,6-18.78-.29-3.44-1.42-7.54,1.12-9.88,1.15-1.06,2.8-1.41,4-2.36,3.34-2.53,2.42-7.79.61-11.57s-4.19-7.84-2.79-11.84c2.19-6.19,12.58-8.07,12.06-14.61-.15-1.85-1.25-3.49-1.62-5.3-.88-4.26,2.6-8.43,6.69-9.9s8.59-.91,12.9-.34c4.86.65,10.58,1.92,12.42,6.46.75,1.86.68,4,1.42,5.84,2,5.12,10.69,5.39,13,.41s-1.53-12.14,2.14-16.45c-2.09.33-4.33.65-6.24-.26s-3.11-3.58-1.77-5.22c2.12-2.6,6.27.53,9.58,0,3-.47,4.51-3.72,6-6.37s4.43-5.37,7.13-4a9,9,0,0,1,2.45,2.37c2.72,3.09,6.75,4.63,10.61,6,2.63,1,5.39,1.95,8.16,1.58,4.34-.58,9.78-3.94,12.24-.32l5.71-8.33A12,12,0,0,1,703,247.52a99.85,99.85,0,0,0,32.21-8.66c1.24,3.74,8.2,3.83,8.17,7.77,0,1.81-1.72,3.2-2,5-.31,2.24,1.68,4.7.43,6.58-.9,1.36-2.85,1.35-4.48,1.46a15.07,15.07,0,0,0-13.17,10.73c-.51,1.84-.66,3.78-1.33,5.57-1.73,4.57-6.43,7.19-10.78,9.43a7.63,7.63,0,0,1,7.76,6.46c.15-1.85,3-2,4.47-.93s2.62,2.85,4.43,3.26c2.23.5,4.22-1.28,6.07-2.62a19,19,0,0,1,14-3.31c1.7.27,3.6.74,5-.24.92-.63,1.4-1.74,2.24-2.48a7.18,7.18,0,0,1,2.79-1.28L780.27,278a11.72,11.72,0,0,1,5.39-.7c4.28.81,6.17,5.74,7.3,9.94.65,2.42,4,4.45,6.34,5.45s5.68-.37,5.62-2.87c-3.21-5.3-6.37-12.37-2.49-17.2s11.75-3.19,17.7-1l6.33,2.35c2.66,2.59,7,.46,10.06-1.72,2.14,10.19,15.42,16.16,24.46,11-2.35,4.32-.7,9.73,1.77,14s5.77,8.17,6.9,13c1.58,6.73-1.44,13.94.32,20.62,2.5,9.48,14,15.79,13.38,25.57-.1,1.56-.53,3.18,0,4.65.94,2.68,4.28,3.42,6.7,4.91s3.47,6,.67,6.54a3.65,3.65,0,0,1-1.56-.13c-3.55-.91-6.42-3.44-9.3-5.71s-6.18-4.44-9.84-4.4-7.47,3.3-6.71,6.88c.25,1.19,1,2.36.67,3.54-.63,2.5-4.27,1.93-6.81,2.35-8.58,1.43-6.52,17-14.61,20.16-4.64,1.83-10-1.69-14.77-.32A18.65,18.65,0,0,0,823,397.5a40,40,0,0,1-22.28,6.32c-1.51,0-3.14-.11-4.38.75-1.63,1.12-1.94,3.4-3.18,4.94-2.8,3.48-8.5,1.65-12-1.19s-6.86-6.66-11.33-6.5c-5.48.19-8.61,6-11.67,10.61s-9.7,8.57-13.53,4.64c-1.67-1.72-4.06-4.77-5.48-2.84a37.4,37.4,0,0,0,1.32,10.17c-4.83,3-10.31-2.29-15.06-5.44-11-7.28-28.24-.93-31.88,11.73-.64,2.22-.8,4.89.79,6.57a6.55,6.55,0,0,0,3.92,1.67c8.23,1.17,17.08-3.34,24.65.1a4.68,4.68,0,0,1,2.21,1.75c1.5,2.58-1.78,5.56-4.75,5.79s-6.08-.83-8.9.15c-5.91,2.07-7.19,11.79-13.43,12.3-2.42.2-4.64-1.19-6.67-2.53l-14.66-9.67A29.58,29.58,0,0,1,653,459.4c-6.25,0-7,11.66-12,15.43-6.69,5-17.67-3.14-24.27,2-2.91,2.28-5.69,7-8.83,5.11-2.66-1.64-1.73-6.85-4.76-7.64a5.07,5.07,0,0,0-3,.53,48.28,48.28,0,0,1-23.7,2.86c-5.59-.74-11.85-2.32-16.46.94a50.23,50.23,0,0,0-3.9,3.62c-4.22,3.71-10.13,4.64-15.69,5.42-3.26-3.38-10.41-3.52-14.77-1.78s-7.69,5.47-9.88,9.63a12.06,12.06,0,0,0-1.35,3.67C513.62,503.72,518,509.34,517.4,513.83Z" transform="translate(0 0.02)"/></g></svg>