<svg id="图层_3" data-name="图层 3" xmlns="http://www.w3.org/2000/svg" viewBox="0 0 1284.59 716.92"><defs><style>.cls-1{fill:#707070;}</style></defs><title>guangdongNearLine</title><path class="cls-1" d="M218.21,660.72c-8.57-9.78-11-23.79-9.27-36.68s7.13-25,12.68-36.72c3.45-7.3,12-15.76,17.92-10.32-.12-5.49,1-12.63,6.39-13.67,1.48-.29,3,0,4.51-.19,6.85-.88,8.4-9.95,8.58-16.85s3.14-16,10-15.41c3.07.28,5.62,2.65,8.68,3,4.34.52,8-3,11-6.18a209,209,0,0,1,54.46-40.86,14.49,14.49,0,0,0,16.23-5.52l6.62,4.53a11.76,11.76,0,0,1,8.48-6.09,22.57,22.57,0,0,0,22.71,2.67L391.86,491c9.13,7,24,4.57,30.41-5,16.38,6.77,34.87-.47,51.09-7.64,31.29-13.83,63.3-28.14,87.76-52,7.22-7.06,14-15.12,23.4-18.89,12.18-4.91,26.38-1.61,38.78-5.92,15.31-5.32,24.94-21.06,39.9-27.28,15.87-6.59,34.41-1.22,50.92-6,14.53-4.19,26.68-16,41.78-16.86,10.52-.59,20.45,4.31,30.53,7.38s22.29,3.89,29.94-3.35c2.14-2,3.9-4.65,6.65-5.69,8.56-3.25,18.29,10.9,25.47,5.22,3.13,1.66,7.31.32,10.84,0-1.87,4.14,2.59,9,7.13,9s8.39-3.43,11-7.18,4.3-8.05,7.18-11.56c8.17-10,25-13.47,27.07-26.19.56-3.5.4-8.12,3.73-9.32,4.26-1.54,8,5,12.46,4,1.62-.37,2.82-1.7,3.91-3l19-22,2-2.35c4.85-5.62,9.71-11.25,15-16.5,2.65-2.64,5.61-5.3,9.3-6a32.36,32.36,0,0,1,6.33,0c13.15.26,25.38-11.4,25.75-24.55a18.91,18.91,0,0,0-1.63-8.61c-1.18-2.5-3-4.62-4.48-7-5.94-9.64-4.21-23.32,4-31.18,2.67-2.57,6-4.71,7.38-8.16,1.17-3,.73-6.76,3-9,2.71-2.72,7.54-1.55,10.73-3.69,7-4.71,0-19.55,7.88-22.61,1.85-.72,4.52-.83,4.89-2.78.21-1.08-.53-2.09-1.06-3.06-3.1-5.67.61-12.7,5.14-17.3s10.21-8.66,12.13-14.83c.9-2.89.93-6.16,2.76-8.57,2-2.61,5.45-3.43,8.45-4.74a23.28,23.28,0,0,0,12.65-14.13c7.57-6.46,20.86.72,30.32-2.37,3.14-1,6.31-3.3,9.43-2.23a22.61,22.61,0,0,1,3.64,2.18c5.63,3.21,12.51-.84,17.69-4.74,6-4.53,12.27-9.33,15.53-16.13,3.48-7.27,3-15.73,2.5-23.78-.13-2,2.34-25.14.36-24.7C791.25.64,417.59,10.51,48.31,12.13,33.73,12.2.83,9.16-5.54,22.27c-2.4,4.95-4.32,17-4.5,22.5-5.36,165.3-10.19,326.7-15.56,492-1.11,34.16-7.1,133.7,2.29,166.57s52.47,1.77,84.44,13.86c20.8,7.86,43.79,7,65.91,4.77C160.23,718.6,216.3,694,218.21,660.72Z" transform="translate(28.5 -6.6)"/><path class="cls-1" d="M409.9,578.73a5.32,5.32,0,0,1,2.17.41l12.24,4.14c-1.5-2.06-.61-5.13,1.25-6.86s4.42-2.44,6.88-3.1c1.25-.34,2.64-.66,3.79,0a17.84,17.84,0,0,1,1.87,1.56c2.45,1.77,5.81,0,8.27-1.74a24.72,24.72,0,0,1,3.14,7.76l.65-4.59,9.33-4.19c4.73-2.13,10.17-4.27,14.93-2.2,3.28,1.43,5.43,4.56,7.41,7.54,1.55-.18,1.81-2.46,1-3.8s-2.19-2.34-2.65-3.83a3.51,3.51,0,0,1,.2-2.57c1.49-3,6.18-2.29,8.85-.2s4.92,5.14,8.27,5.65c1.48.22,3.06-.09,4.43.5,1.79.76,2.65,2.76,3.33,4.58,2.39,6.33,4.6,14.07.34,19.33-2.8,3.46-7.61,4.63-10.84,7.7a23,23,0,0,0-4,5.7,245.12,245.12,0,0,0-14.9,32.17,3.32,3.32,0,0,1,3.23,3c-4.19,2.57-5.69,9.09-10.55,9.82a35.08,35.08,0,0,0-3.59.25c-2,.5-3.22,2.32-4.4,4A58.2,58.2,0,0,1,440.64,677a26.68,26.68,0,0,1-11.5,3.53c-5.25.15-10.34-2.1-15.59-2-3.8.1-7.55,1.44-11.32,1-5.28-.6-9.68-4.57-14.93-5.39-3.36-.53-7.17.19-9.9-1.86-3.3-2.47-3.05-7.34-3.7-11.41-1.21-7.61-6.56-14.4-6.23-22.1.21-4.8,2.65-9.56,1.49-14.22-.37-1.5-1.11-2.91-1.4-4.43-.66-3.51,1.15-7,3.35-9.84,6.9-8.88,17.34-13.41,28-16.11,6.13-1.56,4.49-.78,4.77-5.7C403.84,584.82,404.58,579.24,409.9,578.73Z" transform="translate(28.5 -6.6)"/><path class="cls-1" d="M1059.3,285.56c-6.81,10-13.06,20.42-19.31,30.8l-17.9,29.75c-2,3.35-4.07,6.79-4.85,10.63-1.15,5.68.6,11.6-.27,17.33s-4.2,11.17-2.68,16.65a19.73,19.73,0,0,0,.91,2.43l1.2,2.82q3.79,8.92,7.58,17.85c1.83,4.3,3.72,8.67,6.72,12.25,3.34,4,7.89,6.77,11.49,10.52a30.42,30.42,0,0,1,7.92,25.68,47.66,47.66,0,0,1,12.61-4.15c-1.25-6.39-2.48-13.16-.29-19.3,1.83-5.14,5.95-9.5,6.41-14.93.15-1.72-.08-3.53.55-5.14.83-2.13,2.94-3.42,4.77-4.8,8.4-6.34,12.45-16.76,16.11-26.63,4.16-11.22,8.33-22.49,10.69-34.22,1.61-8,2.37-16.23,4.69-24.07s6.22-15.24,10.23-22.43c3-5.3,6.08-11.47,3.94-17.15-1-2.74-3.27-5.68-1.87-8.26,1.1-2,3.8-2.42,5.63-3.81,4.31-3.24,2.15-10.55-2.21-13.72s-10-3.94-14.81-6.38-8.88-5.91-14-2.1c-3.65,2.7-5,5.1-9.32,7.23C1072.89,267.45,1065.67,276.19,1059.3,285.56Z" transform="translate(28.5 -6.6)"/><path class="cls-1" d="M1114,523a37.39,37.39,0,0,0-1.32,12.22,7.18,7.18,0,0,0,3.24-5,21.27,21.27,0,0,0,0-6.11,1.91,1.91,0,0,0-.5-1.33c-.68-.57-1.74.07-2.17.86s-.6,1.74-1.29,2.31" transform="translate(28.5 -6.6)"/><path class="cls-1" d="M1120.17,546.25a72.4,72.4,0,0,0-8.48,13.61,4.1,4.1,0,0,0-.57,2.31c.23,1.51,2.09,2.3,3.58,1.94a7.92,7.92,0,0,0,3.68-2.62c3.58-3.84,7-8.18,7.94-13.33-1.17-1.88-4-2.06-5.92-.91s-3,3.22-3.89,5.25" transform="translate(28.5 -6.6)"/><path class="cls-1" d="M1087.05,609.28l.32,2.3a11.68,11.68,0,0,0,1.27,4.51,4,4,0,0,0,3.93,2.07c1.69-.33,2.73-2.07,3.14-3.74.72-3-.13-6.5-2.65-8.25s-6.66-.93-7.77,1.93" transform="translate(28.5 -6.6)"/><path class="cls-1" d="M1076.47,621.65a62,62,0,0,0-3.15,10.36c-.12.56-.15,1.3.37,1.55a1.34,1.34,0,0,0,1.15-.19c2.62-1.34,5.67-3.43,5.27-6.35-.2-1.44-1.23-2.59-2-3.82s-1.26-2.9-.41-4.07" transform="translate(28.5 -6.6)"/><path class="cls-1" d="M1116.52,598a8.85,8.85,0,0,1,3.58-2.36,1.88,1.88,0,0,1,1-.14,1.7,1.7,0,0,1,1.12,1.41,4,4,0,0,1-7.49,2.78" transform="translate(28.5 -6.6)"/><path class="cls-1" d="M986,354a17.85,17.85,0,0,0,.83,6c.48,1.5,1.91,3.23,3.29,2.47a3,3,0,0,0,1.11-2.34l.68-4.93a2.43,2.43,0,0,0-.46-2.26,2.32,2.32,0,0,0-1.05-.4,5.76,5.76,0,0,0-3.95.24c-1.17.67-1.7,2.52-.66,3.37" transform="translate(28.5 -6.6)"/><path class="cls-1" d="M1224.47,306.81a40,40,0,0,1,8.34,1.38,3.13,3.13,0,0,1,1.65.86,3.26,3.26,0,0,1,.55,1.82c.24,2.64.19,5.88-2.13,7.18a6.66,6.66,0,0,1-3.39.57c-2.19,0-4.54-.21-6.27-1.56-2.92-2.26-2.38-7.6.93-9.23" transform="translate(28.5 -6.6)"/><path class="cls-1" d="M1243.88,303.95l1.84,8.88a3.76,3.76,0,0,0,1,2.26c1.44,1.17,3.65-.44,4.06-2.25s-.15-3.7.1-5.54c.39-2.87,2.62-5.07,4.64-7.14a1.84,1.84,0,0,0,.5-.71c.28-.93-1.07-1.63-1.95-1.22a4.73,4.73,0,0,0-1.8,2.21,7,7,0,0,1-3.23,3.19,3.66,3.66,0,0,1-4.22-.88" transform="translate(28.5 -6.6)"/><path class="cls-1" d="M1077.56,642.69a9.75,9.75,0,0,1,9.72,2.77A7.74,7.74,0,0,1,1079,644" transform="translate(28.5 -6.6)"/><path class="cls-1" d="M1084.41,662.52c-6.69-4.17-14.51-9.61-21.71-6.4-1.43.64-2.75,1.6-4.3,1.81-3.45.47-6.62-2.95-10-2.29-2.75.52-4.36,3.52-4.62,6.31s.43,5.58.36,8.38c-.16,5.92-3.66,12-1.25,17.44,1.87,4.2,6.76,6.24,11.35,6.6s9.18-.57,13.77-.41c8.53.3,16.52,4.31,25,5.36,13.85,1.71,27.44-4.65,39-12.41,2.9-1.94,5.81-4.06,7.61-7s2.23-7.05.16-9.86c-.72-1-1.72-1.79-2.06-2.95a27.91,27.91,0,0,1-.21-3.09c-.61-3.53-5.83-4.13-8.75-2.05-6.91,4.92-8.42,14.28-18.81,11.73A92.56,92.56,0,0,1,1084.41,662.52Z" transform="translate(28.5 -6.6)"/><path class="cls-1" d="M783.28,511a12.64,12.64,0,0,1,4.67-7.87,2.47,2.47,0,0,1,1.18-.59c1.14-.13,1.93,1.13,2.23,2.24a7.14,7.14,0,0,1-.92,6.24c-1.36,1.71-4.16,2.3-5.78.85" transform="translate(28.5 -6.6)"/><path class="cls-1" d="M830.52,527.49c1.35,1.38,4.21.81,5,2.56.57,1.25-.44,2.62-1.38,3.62l-4.26,4.54a4.91,4.91,0,0,0,8.66-3.56,6.29,6.29,0,0,0-1.23-3.09,8.68,8.68,0,0,0-4.84-3.31" transform="translate(28.5 -6.6)"/></svg>