<svg id="图层_1" data-name="图层 1" xmlns="http://www.w3.org/2000/svg" viewBox="0 0 1000 531.99"><defs><style>.cls-1{fill:#505050;fill-rule:evenodd;}</style></defs><title>guangdongNearLine</title><path class="cls-1" d="M1060.24,337.91l12.47.35,6.58,4.5m1.66.65c5.09-2.67,5.55,5.69,11.56,1.19,4-3-4.88-19.47,7.76-19.47l-.79,8.31,5.78,2.08c1.71,2.14-9.23,9.71-9.23,13.12,3.41,2.56,17.92-.85,17.92-3.78l-3-4.44c.56-2.33,4.95-3.11,6.77-3.79,0-6.23,4.09-8.45,4.09-13.87,0,0-3.94-2.11-6.07-.74l-1.17.59-.25-.19,5.1-9.85c1.23-5.54-2-4.45-2-8.35,2.56-3.84,8,5.38,8.58,7,.84,2.52-2.36,21.38,3,19.38s4.37-9.86,5.35-14.27l.9-4.84.45-3.42.07-.42.16-1.76v-1.27c.32-5.6,2.39-11.44,8.89-18.76l1-9.63c1.45-1.63,5.16,1,6.21,1.71V94H152s.41,354.68.62,532c0,0,37.59-.73,41.81-15l1.13-7.91-11.27-7.33,3.4-.43c5.09,0,1.37-4,2.38-7l9.58-6,.29-.06c2,1.47,1-.65,2.68-.65,6,4.52-10.91,5-3.48,13.38l.77,3.57,3.15-1,.12,1.31c-3.14,4.23,2.75,2.16,2.75,4.49l-.05.28-3.79,3.09.32,2,2.65-.06c1.59-.6,3.87-9.41,7.1-7,1.48,2.21-4.49,10.78-2.44,14.37s4.34,4.14,8.69,3.21l1-.35,1-.54L259.59,603c15.38-3.85,39-8.93,52.16-18.78l34.77-20.87c14.09-9.4,29.51-20.15,45.2-26.43l62.59-23.65,17.39-4.17,105-42.43,55.63-21.56s23-10.71,37.49-16.94c13.15-5.64,26.46-14.39,40.62-17.93,23.06-5.77,47.25-9.27,70.49-13.15l21.51-8.37,20.31-3.59,13.14-6c12.92-3.23,24.94-8.1,38.23-10.76,18.1-3.62,36.67-7.71,55-10.76,6.87-1.15,21.08.43,26.28-4.78,5.14,0,16.79-2.53,19.12-7.17,5.87,0,11.31-5.37,16.73-7.17,8.34-2.78,59.7-7.21,65.71-1.2" transform="translate(-152 -94)"/></svg>