<svg id="图层_3" data-name="图层 3" xmlns="http://www.w3.org/2000/svg" viewBox="0 0 435.14 328.87"><defs><style>.cls-1{fill:#4a7fc1;}</style></defs><title>广东</title><path class="cls-1" d="M488.9,520.43a15.62,15.62,0,0,1-10.85,2.15c-2,2.4-1.68,6-.37,8.82s3.45,5.15,5.11,7.78a25.65,25.65,0,0,1,3.79,16.12,5.19,5.19,0,0,1-1,2.89c-1,1.24-2.87,1.36-4.48,1.52-14.46,1.44-28.56,13-42,7.63a13.18,13.18,0,0,0,3.3-15.25c-1.26-2.67-3.4-4.81-5.24-7.11a39.05,39.05,0,0,1-8.07-29.21c1-7.24,4-14,5.84-21.11s2.47-15-1.11-21.35c1.83-4.17,9.12,2.88,12.45-.23,2.26-2.11-.38-5.82,0-8.89.55-4.41,6.71-5.3,11-4s9,3.56,12.85,1.35L468,453.91c-.93-3.36-1.77-7.25.28-10.07s8-1.7,7.36,1.72A28.23,28.23,0,0,1,486.39,444l-1.8-4.69a23.78,23.78,0,0,0,7.35-3A10.67,10.67,0,0,1,489,424.82c2.8-7.52,12.52-9.15,20.53-9.61v-5.44c6.43,3.07,13.94-3.12,15.91-10s.58-14.2,1.33-21.29c.69-6.54,3.19-12.74,5.66-18.84a8.27,8.27,0,0,1,2.55-3.92c.94-.65,2.11-.89,3.08-1.49,2-1.23,2.71-3.69,3.28-5.94s1.27-4.71,3.2-6,5.35-.18,5.18,2.14c3.24-5.81,6.58-12.14,6-18.78-.29-3.44-1.42-7.54,1.12-9.88,1.15-1.06,2.8-1.41,4.05-2.36,3.34-2.53,2.42-7.79.61-11.57S557.31,294,558.71,290c2.19-6.19,12.58-8.07,12.06-14.61-.15-1.85-1.25-3.49-1.62-5.3-.88-4.26,2.6-8.43,6.69-9.9s8.59-.91,12.9-.34c4.86.65,10.58,1.92,12.42,6.46.75,1.86.68,4,1.42,5.84,2,5.12,10.69,5.39,13,.41s-1.53-12.14,2.14-16.45c-2.09.33-4.33.65-6.24-.26s-3.11-3.58-1.77-5.22c2.12-2.6,6.27.53,9.58,0,3-.47,4.51-3.72,6-6.37s4.43-5.37,7.13-4a9,9,0,0,1,2.45,2.37c2.72,3.09,6.75,4.63,10.61,6,2.63,1,5.39,1.95,8.16,1.58,4.34-.58,9.78-3.94,12.24-.32l5.71-8.33a12,12,0,0,1,2.94,12.56,99.85,99.85,0,0,0,32.21-8.66c1.24,3.74,8.2,3.83,8.17,7.77,0,1.81-1.72,3.2-2,5-.31,2.24,1.68,4.7.43,6.58-.9,1.36-2.85,1.35-4.48,1.46a15.07,15.07,0,0,0-13.17,10.73c-.51,1.84-.66,3.78-1.33,5.57-1.73,4.57-6.43,7.19-10.78,9.43a7.63,7.63,0,0,1,7.76,6.46c.15-1.85,3-2,4.47-.93s2.62,2.85,4.43,3.26c2.23.5,4.22-1.28,6.07-2.62a19,19,0,0,1,14-3.31c1.7.27,3.6.74,5-.24.92-.63,1.4-1.74,2.24-2.48a7.18,7.18,0,0,1,2.79-1.28l21.43-6.28a11.72,11.72,0,0,1,5.39-.7c4.28.81,6.17,5.74,7.3,9.94.65,2.42,4,4.45,6.34,5.45s5.68-.37,5.62-2.87c-3.21-5.3-6.37-12.37-2.49-17.2s11.75-3.19,17.7-1l6.33,2.35c2.66,2.59,7.05.46,10.06-1.72,2.14,10.19,15.42,16.16,24.46,11-2.35,4.32-.7,9.73,1.77,14s5.77,8.17,6.9,13c1.58,6.73-1.44,13.94.32,20.62,2.5,9.48,14,15.79,13.38,25.57-.1,1.56-.53,3.18,0,4.65.94,2.68,4.28,3.42,6.7,4.91s3.47,6,.67,6.54a3.65,3.65,0,0,1-1.56-.13c-3.55-.91-6.42-3.44-9.3-5.71s-6.18-4.44-9.84-4.4-7.47,3.3-6.71,6.88c.25,1.19,1,2.36.67,3.54-.63,2.5-4.27,1.93-6.81,2.35-8.58,1.43-6.52,17-14.61,20.16-4.64,1.83-10-1.69-14.77-.32a18.65,18.65,0,0,0-4.81,2.61,40,40,0,0,1-22.28,6.32c-1.51,0-3.14-.11-4.38.75-1.63,1.12-1.94,3.4-3.18,4.94-2.8,3.48-8.5,1.65-11.95-1.19s-6.86-6.66-11.33-6.5c-5.48.19-8.61,6.05-11.67,10.61s-9.7,8.57-13.53,4.64c-1.67-1.72-4.06-4.77-5.48-2.84A37.4,37.4,0,0,0,712,431c-4.83,3-10.31-2.29-15.06-5.44-11-7.28-28.24-.93-31.88,11.73-.64,2.22-.8,4.89.79,6.57a6.55,6.55,0,0,0,3.92,1.67c8.23,1.17,17.08-3.34,24.65.1a4.68,4.68,0,0,1,2.21,1.75c1.5,2.58-1.78,5.56-4.75,5.79s-6.08-.83-8.9.15c-5.91,2.07-7.19,11.79-13.43,12.3-2.42.2-4.64-1.19-6.67-2.53l-14.66-9.67A29.58,29.58,0,0,1,624.5,466c-6.25,0-7,11.66-12,15.43-6.69,5.05-17.67-3.14-24.27,2-2.91,2.28-5.69,7.05-8.83,5.11-2.66-1.64-1.73-6.85-4.76-7.64a5.07,5.07,0,0,0-3,.53,48.28,48.28,0,0,1-23.7,2.86c-5.59-.74-11.85-2.32-16.46.94a50.23,50.23,0,0,0-3.9,3.62c-4.22,3.71-10.13,4.64-15.69,5.42-3.26-3.38-10.41-3.52-14.77-1.78s-7.69,5.47-9.88,9.63a12.06,12.06,0,0,0-1.35,3.67C485.12,510.32,489.55,515.94,488.9,520.43Z" transform="translate(-428.75 -239.9)"/></svg>