<?xml version="1.0" standalone="no"?><!DOCTYPE svg PUBLIC "-//W3C//DTD SVG 1.1//EN" "http://www.w3.org/Graphics/SVG/1.1/DTD/svg11.dtd"><svg t="1524847336914" class="icon" style="" viewBox="0 0 1448 1024" version="1.1" xmlns="http://www.w3.org/2000/svg" p-id="1365" xmlns:xlink="http://www.w3.org/1999/xlink" width="282.8125" height="200"><defs><style type="text/css"></style></defs><path d="M611.943434 935.046465h-302.545454l9.309091-13.187879c0.517172-0.775758 43.183838-62.319192 70.593939-174.804041 25.341414-103.951515 42.666667-274.359596-18.618182-494.416161L367.838384 241.777778h222.90101l-2.327273 10.343434c-0.258586 1.034343-23.014141 100.331313-32.064646 232.210101-8.274747 121.535354-5.947475 296.080808 51.2 439.078788l4.395959 11.636364z m-270.997979-16.808081h246.432323c-54.044444-143.515152-55.854545-315.216162-47.838384-435.2 7.240404-108.606061 24.048485-195.490909 29.99596-224.452525h-179.717172c58.957576 219.022222 41.373737 388.654545 15.773737 493.123232-21.20404 86.367677-50.424242 142.480808-64.646464 166.529293z" fill="#d81e06" p-id="1366"></path><path d="M420.848485 529.583838c-2.844444 0-5.688889-1.551515-7.240404-4.137373-2.327273-3.878788-1.034343-9.050505 2.844444-11.636364l112.484849-68.525253-118.949495-26.892929c-3.620202-0.775758-6.206061-3.878788-6.464647-7.757576s2.068687-7.240404 5.688889-8.274747l123.345455-42.149495-140.670707-40.59798c-3.10303-1.034343-5.430303-3.620202-5.947475-6.981818-0.517172-3.361616 1.034343-6.464646 3.878788-8.274747L492.735354 243.070707c3.878788-2.327273 9.050505-1.034343 11.377777 2.844445 2.327273 3.878788 1.034343 9.050505-2.844444 11.377777l-86.109091 51.717172 147.911111 42.666667c3.620202 1.034343 5.947475 4.137374 5.947475 7.757575s-2.327273 6.981818-5.688889 8.016162l-120.50101 41.373737 110.157576 24.824243c3.361616 0.775758 5.947475 3.361616 6.464646 6.723232 0.517172 3.361616-1.034343 6.723232-3.878788 8.533334l-130.327273 79.385858c-1.292929 0.775758-2.844444 1.292929-4.395959 1.292929z" fill="#d81e06" p-id="1367"></path><path d="M394.472727 791.014141c-2.327273 0-4.39596-1.034343-5.947474-2.844444-2.844444-3.361616-2.585859-8.274747 0.775757-11.119192l140.153535-120.759596-106.020202-25.341414c-2.844444-0.775758-5.171717-3.10303-5.947474-5.947475-0.775758-2.844444 0.517172-5.947475 2.844444-8.016161l111.450505-88.177778-110.416161-66.715152c-3.878788-2.327273-4.913131-7.240404-2.585859-10.860606 2.327273-3.878788 7.240404-4.913131 10.860606-2.585858l120.242424 72.40404c2.327273 1.292929 3.620202 3.620202 3.878788 6.206061 0.258586 2.585859-1.034343 5.171717-3.10303 6.723232L442.828283 619.571717l105.244444 25.082828c2.844444 0.775758 5.171717 2.844444 5.947475 5.947475s-0.258586 5.947475-2.585859 8.016162l-152.048484 130.844444c-1.292929 1.034343-3.10303 1.551515-4.913132 1.551515z" fill="#d81e06" p-id="1368"></path><path d="M344.048485 935.046465c-2.844444 0-5.430303-1.292929-6.981818-3.878788-2.585859-3.878788-1.292929-9.050505 2.585858-11.636364l193.680808-124.379798-139.119192-3.620202c-4.137374 0-7.49899-3.10303-8.016161-6.981818-0.517172-3.878788 1.551515-7.757576 5.430303-9.309091l152.048485-54.561616c4.39596-1.551515 9.050505 0.775758 10.60202 5.171717s-0.775758 9.050505-5.171717 10.60202L439.208081 775.757576l121.793939 3.10303c3.620202 0 6.981818 2.585859 7.757576 6.206061 1.034343 3.620202-0.517172 7.240404-3.620202 9.309091L348.70303 933.494949c-1.551515 1.034343-3.10303 1.551515-4.654545 1.551516z" fill="#d81e06" p-id="1369"></path><path d="M599.531313 934.529293c-0.517172 0-1.034343 0-1.810101-0.258586l-244.880808-53.527273c-4.39596-1.034343-6.981818-5.171717-5.947475-9.567676s5.171717-6.981818 9.567677-5.947475l244.880808 53.527273c4.39596 1.034343 6.981818 5.171717 5.947475 9.567676-0.775758 3.620202-4.137374 6.206061-7.757576 6.206061z" fill="#d81e06" p-id="1370"></path><path d="M712.274747 937.373737h-519.757575c-4.654545 0-8.274747-3.878788-8.274748-8.274747s3.878788-8.274747 8.274748-8.274748h519.757575c4.654545 0 8.274747 3.878788 8.274748 8.274748s-3.620202 8.274747-8.274748 8.274747zM483.943434 258.585859c-4.654545 0-8.274747-3.878788-8.274747-8.274748V76.8c0-4.654545 3.878788-8.274747 8.274747-8.274747s8.274747 3.878788 8.274748 8.274747v173.511111c0.258586 4.39596-3.620202 8.274747-8.274748 8.274748zM322.585859 517.947475c-1.810101 0-3.361616-0.775758-4.654546-2.068687l-15.256566-15.256566c-2.585859-2.585859-2.585859-6.981818 0-9.567677s6.981818-2.585859 9.567677 0l15.256566 15.256566c2.585859 2.585859 2.585859 6.981818 0 9.567677-1.551515 1.551515-3.10303 2.068687-4.913131 2.068687zM322.585859 535.789899H295.434343c-3.620202 0-6.723232-3.10303-6.723232-6.723232s3.10303-6.723232 6.723232-6.723233h27.151516c3.620202 0 6.723232 3.10303 6.723232 6.723233s-2.844444 6.723232-6.723232 6.723232zM307.329293 567.59596c-1.810101 0-3.620202-0.775758-4.913131-2.068687-2.585859-2.585859-2.585859-6.981818 0.258585-9.567677l15.515152-14.99798c2.585859-2.585859 6.981818-2.585859 9.567677 0.258586 2.585859 2.585859 2.585859 6.981818-0.258586 9.567677l-15.515152 14.99798c-1.292929 1.292929-3.10303 1.810101-4.654545 1.810101z" fill="#d81e06" p-id="1371"></path><path d="M794.246465 126.448485c-2.844444 0-5.430303-2.327273-5.430303-5.430303V89.470707c0-2.844444 2.327273-5.430303 5.430303-5.430303s5.430303 2.327273 5.430303 5.430303v31.547475c0 3.10303-2.327273 5.430303-5.430303 5.430303zM781.058586 132.654545c-1.292929 0-2.844444-0.517172-3.878788-1.551515l-22.49697-22.496969c-2.068687-2.068687-2.068687-5.430303 0-7.49899 2.068687-2.068687 5.430303-2.068687 7.49899 0l22.49697 22.496969c2.068687 2.068687 2.068687 5.430303 0 7.49899-1.034343 1.034343-2.327273 1.551515-3.620202 1.551515zM775.886869 146.618182h-31.547475c-2.844444 0-5.430303-2.327273-5.430303-5.430303s2.327273-5.430303 5.430303-5.430303h31.547475c2.844444 0 5.430303 2.327273 5.430303 5.430303s-2.327273 5.430303-5.430303 5.430303zM759.854545 182.30303c-1.292929 0-2.844444-0.517172-3.878787-1.551515-2.068687-2.068687-2.068687-5.430303 0-7.49899l22.496969-22.496969c2.068687-2.068687 5.430303-2.068687 7.49899 0 2.068687 2.068687 2.068687 5.430303 0 7.498989l-22.49697 22.49697c-1.034343 1.034343-2.327273 1.551515-3.620202 1.551515zM796.056566 196.525253c-2.844444 0-5.430303-2.327273-5.430303-5.430304V159.547475c0-2.844444 2.327273-5.430303 5.430303-5.430303s5.430303 2.327273 5.430303 5.430303v31.547474c-0.258586 3.10303-2.585859 5.430303-5.430303 5.430304zM831.741414 181.010101c-1.292929 0-2.844444-0.517172-3.878788-1.551515l-22.496969-22.49697c-2.068687-2.068687-2.068687-5.430303 0-7.49899 2.068687-2.068687 5.430303-2.068687 7.498989 0l22.49697 22.49697c2.068687 2.068687 2.068687 5.430303 0 7.49899-1.034343 1.034343-2.327273 1.551515-3.620202 1.551515zM845.963636 144.808081h-31.547474c-2.844444 0-5.430303-2.327273-5.430303-5.430303s2.327273-5.430303 5.430303-5.430303h31.547474c2.844444 0 5.430303 2.327273 5.430303 5.430303s-2.585859 5.430303-5.430303 5.430303zM808.210101 131.620202c-1.292929 0-2.844444-0.517172-3.878788-1.551515-2.068687-2.068687-2.068687-5.430303 0-7.49899l22.49697-22.49697c2.068687-2.068687 5.430303-2.068687 7.49899 0 2.068687 2.068687 2.068687 5.430303 0 7.49899l-22.49697 22.49697c-1.034343 1.034343-2.327273 1.551515-3.620202 1.551515z" fill="#d81e06" p-id="1372"></path></svg>