<?xml version="1.0" standalone="no"?><!DOCTYPE svg PUBLIC "-//W3C//DTD SVG 1.1//EN" "http://www.w3.org/Graphics/SVG/1.1/DTD/svg11.dtd"><svg t="1524671633438" class="icon" style="" viewBox="0 0 1024 1024" version="1.1" xmlns="http://www.w3.org/2000/svg" p-id="1140" xmlns:xlink="http://www.w3.org/1999/xlink" width="200" height="200"><defs><style type="text/css"></style></defs><path d="M360.296031 300.373142c-3.877454 1.043339-0.856992 1.901355-6.151503 0.670645 0 5.666181-1.417057 4.063801 1.379173 8.201322-0.708529 3.019438-1.30443 1.640264-1.155966 5.181883l0.783272 3.430016c0.074744 0.074744 0.223207 0.223207 0.261091 0.335834l3.094181 5.10714c0.447438 1.043339 0.447438 1.528661 0.783273 2.646744 0.522182 1.826611 0.596925 1.26757 1.006479 3.094181-0.111604 0.111604-0.261091 0.149487-0.297951 0.372695-0.074744 0.297951-0.522182 0.596925-0.633785 0.745388-5.666181 6.038876-6.151503-0.484298-7.418049 2.646744-0.820132 2.050842 0.522182-0.149487 0.856992 3.764826-1.976099 0.931736-2.796231 0.410578-4.771306 1.379174 0 4.659702 1.192826 2.982578 1.00648 5.331371-0.522182 7.083239-8.760363 2.944694-11.929288 0.820132-2.646744 1.938215-1.118083 1.677124-5.442975 0.670645-0.522182 2.274049-1.081223 3.243669-1.640264 5.890412l-1.789751 5.740925c1.789752 0.969619 1.976099 1.30443 4.771305 1.379173l-3.503735 4.025917c-1.155967 1.30443-1.789752 1.901355-1.976099 4.175405-1.006479 0-2.497256-0.111604-3.430016-0.03686-3.80271 0.261091-2.796231 1.379174-8.835106 1.379173-0.335834 3.951173 0.223207 8.051834-1.901355 11.742941-0.670645 1.192826-0.297951 0.596925-0.820133 1.23071-0.074744 0.111604-0.223207 0.261091-0.29795 0.372695a2.981554 2.981554 0 0 1-0.335835 0.372694l-0.633785 0.708529c-3.503736 4.250148-4.920793 3.392132-5.666181 5.181883-1.043339 2.385653 0.149487 5.852529-1.528661 9.432032-2.497256 5.293487-0.820132 2.572-0.372694 7.828627-2.012959 0.484298-0.969619-0.074744-2.050842 1.379174 0.969619 1.118083 1.528661 1.528661 1.751867 2.83309 0.447438 2.385653-0.894876 0.149487 0.447438 3.877454 0.894876 2.497256 0.670645 0.335834 0.783273 3.205785 0.111604 2.870974-0.223207 1.751868 1.118082 3.764826-2.758347 0.745389-2.460396 3.503736-2.087702 6.859008 0.409554 3.80271 1.640264 3.392132 5.517718 3.392132 0 3.80271-1.081223 5.331371-4.100661 6.151503 1.863471 3.503736 1.603404 3.094181-2.721487 4.100661l1.453917 4.734446c-1.26757 1.789752-2.310909 4.920793-3.653222 6.002015-0.745389 0.596925-1.453917 0.522182-2.758347 2.012959-0.856992 0.931736-1.192826 1.938215-1.751868 3.019438-2.796231 5.479834-1.417057 2.274049-4.80919 4.734446-2.907834 2.087702-0.111604 0.745389-2.050842 2.721487-1.976099 2.012959-1.715008-1.26757-2.758347 2.683603-3.057322-0.074744-5.405091-1.528661-8.835106-1.118083-1.006479 0.111604-1.081223 0.335834-1.379174 0.447438-2.310909 0.745389 0.894876 0.708529-4.100661 0.708529 0.670645 2.460396 0.074744 1.826611 2.721487 2.050842v4.771306c-3.205785 0.261091-1.528661 1.155967-4.175404 1.789751-5.442974 1.342314-1.30443 1.789752-8.126578 1.640265l-0.26109 1.417057c-0.820132 2.124562-3.205785 1.976099-5.890413 1.976099-0.410578 4.920793-5.479834 1.863471-7.94023 3.094181-1.863471 0.931736-0.074744 0.670645-1.715008 0.745389-2.572 0.149487-0.969619-0.931736-3.317389-1.789752l-1.30443 2.870975c-0.111604 0.149487-0.410578 0.522182-0.484297 0.633785l-0.074744 1.826611c0.522182 3.019438-0.372694 2.199306-1.118083 4.548099-0.03686 0.111604-0.111604 0.297951-0.149487 0.447437l0.372694 3.317389c-1.789752 0-2.199306 0.223207-3.691106-0.410578-3.168925-1.30443 0.894876-0.447438-2.460397-1.640264 0 5.777785 0.894876 2.348793 2.310909 5.181883 0.969619 1.901355 0.410578 5.479834 0.410578 7.791768 3.392132 1.565521 2.124562-1.379174 3.951174 3.430015l4.212264 5.442975c-4.212264 0.335834-3.205785 1.043339-6.822148-1.379174l-5.144 5.07028c-0.783272 0.447438-1.603404 0.633785-2.348793 1.04334 0 2.124562-0.149487 3.317388 1.417058 4.697585 0.783272 0.670645-0.074744 0.261091 1.304429 0.745389v2.050842c-3.355272 0.297951-1.342314 0.596925-3.317388 1.417058-0.111604 0.03686-0.297951 0.149487-0.372694 0.149487l-3.80271-0.186347c0.856992-1.826611 0.633785-0.745389 0.670645-3.430016-2.609884-0.596925-2.721487-0.670645-6.151503-0.670645-0.856992 2.348793-1.043339 0.783272-1.863472 3.764826-1.043339 3.83957 1.30443-2.199306-0.186347 1.00648-1.565521 0.372694-1.565521 0.522182-3.392132 0.670644l-2.274049-3.131041-0.335835-0.335834c-0.111604-0.111604-0.223207-0.261091-0.335834-0.372695-1.789752-1.938215-2.012959-2.683603-5.218744-2.982578-1.26757 4.771306-1.528661-0.708529-2.050842 4.100661-3.168925-0.261091-3.131041-0.149487-3.430016-2.721487h-1.379173c-0.931736 2.53514 0.074744-0.03686-1.00648 1.715008-0.670645 1.118083-0.559041 0.745389-1.043339 1.677124l3.243669 4.361752c1.155967 2.310909 0.335834 1.453917 0.186347 2.497256l-0.186347 0.745388c-1.23071 8.014974 0.186347 6.37471 0.186347 13.532693l2.683604 0.783272c-0.074744 1.192826-0.559041 2.012959-0.559042 2.012959-0.335834 1.640264 0.261091 0.969619 0.894876 2.982578 0.484298 1.453917 0.335834 0.708529 0.372694 2.423536-3.430016 0-3.541619 0.074744-6.151503 0.670645-1.26757-1.901355-1.938215-3.168925-4.771305-3.430016-0.111604 4.250148-2.944694 4.100661-6.822148 4.100661-1.043339-3.877454-5.852529-1.342314-7.418049-1.342314-0.335834 0-0.856992-0.522182-2.833091-0.708528l-1.379174 2.050842c-2.721487 1.826611-2.683603 2.53514-6.561057 1.155966l-5.032396-1.826611c-0.856992 3.168925-0.969619 1.603404-2.833091 3.317388-1.715008 1.565521-0.596925 1.26757-1.043339 3.57848 0 0.111604-0.074744 0.297951-0.074744 0.410578-2.237189 8.611899-0.03686 5.927272-1.789751 10.102676-1.043339 2.423537-1.081223 6.33785-2.796231 7.492793-0.745389 0.484298-9.058313 2.087702-10.550114 2.423537-1.118083-2.087702-0.856992-2.721487-2.721488-4.100661-0.372694 4.584958-3.057322 5.032396-1.56552 12.376726 0.149487 0.745389 0 0.410578 0.596925 1.52866l2.683603 5.554578c2.012959 6.859008-1.789752 10.102677-2.53514 11.779801-2.758347 6.076759 2.497256 10.848065-4.100661 17.744957l-3.914313 4.287007c-2.348793 2.646744-5.07028 4.212264-4.323868 8.499272 0.633785 3.578479 2.460396 3.83957 1.155967 8.760363-1.528661 5.777785-2.385653 13.606412-1.155967 19.721056 2.348793 11.668197 3.578479 23.336394 10.252164 33.40221 1.863471 2.796231 3.503736 3.131041 6.299966 4.622843 0 11.146016 4.771306 7.753884 6.635801 21.995104 0.708529 5.479834 0.297951 8.835106-1.751868 12.227239-2.310909 3.83957-2.870974 5.442974-2.870974 11.48185 12.78628 0 21.36132-3.355272 33.439071-3.392132 3.280529 0 19.049386-2.572 21.472923-3.764827l13.644296-7.492792c0.708529-0.410578 1.677124-0.745389 2.348792-1.081223l8.909851-4.063801c0-4.809189-1.23071-2.833091 0.074743-7.381189 1.379174-4.809189 0.261091-10.400627-0.820132-15.731998-0.447438-2.199306-1.528661-4.622842-2.385653-7.157983-1.192826-3.466876-8.90985-18.042907-11.258643-20.130609-1.006479-0.894876-1.565521-1.417057-2.646743-2.124562 0.410578-0.745389 1.155967-1.938215 1.453917-2.609884 0.447438-0.931736 0.969619-2.684627 1.23071-3.541619 0.931736-3.243669 0.708529-4.771306 0.708529-8.835107 3.989057 2.683603 3.877454 4.063801 10.885948 4.137521 8.871966 0.074744 6.635801 0.223207 12.301983-2.758347 0-9.096197-2.683603-5.479834-4.511239-12.563073-2.050842-7.791767-0.149487-7.492793 0.409554-14.091734 0.931736-10.959669-2.237189-11.146016 4.957653-20.280096l1.938215-2.162446c1.528661-1.640264 0.820132-0.633785 1.976098-2.796231l19.794775-0.670645c7.567536-0.410578 13.942246 0.745389 20.466444 0.708529 9.692098-0.03686 20.316957 1.640264 26.169485-7.306446 0.335834-0.484298 0.670645-1.26757 0.894876-1.863471 0.447438-1.26757 0.856992-3.243669 0.969619-4.511239 5.479834 0 5.591438-0.484298 7.492793-4.100661h13.644296c6.822148 0 6.299966 0.820132 11.593453-2.721487 4.287008 2.870974 3.914314 2.796231 10.922809 2.721487 5.032396-0.03686 32.171501 0.856992 34.930872-0.559041 1.565521-0.820132 2.796231-2.423537 3.280528-4.212264h6.822148c0 3.094181-0.111604 2.609884 0.633785 4.809189 1.342314 3.83957 1.826611 8.611899 10.512231 5.666181 8.276065-2.796231 9.021454-10.17742 13.569552-10.997552l3.243669-0.149487c6.188363 0.074744 11.072296-2.870974 13.457949-1.863471 3.653223 1.528661 3.019438 2.572 8.387668 2.609883 5.629322 0.03686 9.991073 0.186347 13.233718-3.914313 1.565521-1.976099 1.155967-1.006479 1.155967-4.287008 0.074744-10.102677 4.100661-7.269586 9.394147-13.122115 2.237189-2.460396 1.453917-6.597917 1.453918-10.139536 4.734446 1.118083 12.935767 1.043339 17.707072-0.03686 4.584958-1.043339 9.916329-2.237189 13.122115-5.965156l1.52866-1.863471c4.809189-5.777785 10.550114-10.438511 17.894444-12.190379 7.120099-1.715008 5.815669 5.927272 8.984594 9.95319 4.287008 5.442974 13.457949 1.006479 18.937783 2.907834 4.957653 1.715008 6.486314 9.357288 9.133057 13.383205 7.903371 0 7.455933-1.603404 8.537156-7.828627l3.430016-5.442975c4.025917-3.541619 8.089718-6.225223 13.942246-6.524197 2.162446-0.111604 18.378742-2.907834 19.646312-3.541619 4.137521-2.012959 4.659702-7.567536 1.192826-11.109156-4.250148-4.361751-3.355272-5.405091-12.190378-4.734446-8.499272 0.633785-22.255171-1.417057-33.513815 0.074744-2.721487 0.372694-3.914314-0.297951-5.927272-1.677124-0.820132-0.559041-1.342314-0.931736-2.012959-1.379174-1.30443-0.931736-4.137521-1.603404-1.863471-8.126578 0.670645-1.901355 1.155967-2.124562 1.826612-3.653222 2.310909-5.181884 1.490777-10.736462 1.490777-16.25418 1.863471-0.484298 7.306446-3.653223 8.798246-4.846049 5.144-4.137521 0.335834-3.355272 10.997552-3.355272 0.783272-1.976099 1.789752-1.23071 2.087703-2.087703l-0.03686-0.633785c4.659702 0 6.113619-2.758347 10.289023-2.870974 3.83957-0.074744 2.721487-0.111604 3.355273 1.490777h2.050842c0.745389-1.901355-0.297951-0.484298 1.453917-1.30443 0.335834-0.149487 2.124562-0.522182 2.199306-0.559041 3.057322-0.484298 15.470907-0.894876 16.850081 0.484297 1.677124 3.503736-0.372694 6.933751 1.751867 11.22076 2.124562 4.250148 4.250148 4.250148 9.170941 3.131041 1.30443 2.460396 2.907834 3.019438 5.554578 4.025917 2.237189 0.856992 5.293487 2.012959 8.685619 1.342314 3.653223-0.745389 2.423537-1.789752 1.751868-5.591438-0.670645-3.764826-0.261091-5.704065-1.677124-8.611899 3.205785 0 4.548099-0.969619 7.978114-0.522182 2.646744 0.372694 5.405091 0.633785 9.133057 0.559041 2.796231-0.074744 5.293487-0.708529 6.597917-2.274049 1.342314-1.603404 0.969619-6.225223 6.486314-13.98013 4.324892-6.076759 12.265122-4.920793 19.907402-6.038876 12.898907-1.863471 17.074312 3.578479 26.50532 9.804726 3.691107 2.423537 18.937783 4.025917 18.937783-16.216296 6.41157 3.392132 14.166477 7.791767 21.845617 7.567537 7.008495-0.186347 8.312925-4.659702 13.010511-6.785288 1.528661-0.708529 6.113619-1.26757 8.387668-1.863472 5.442974-1.379174 9.878446-2.572 14.091734-6.37471l5.331371-4.212264c6.299966-3.317388 9.319404 2.124562 15.731998 2.199306 6.747404 0.074744 9.468891-1.938215 13.830643-6.038876 1.863471-1.751868 4.883933-2.53514 5.666181-4.584958 1.342314-3.392132-1.081223-15.32142-1.715008-18.117651 2.53514-1.342314 2.460396-2.423537 5.479835-2.721487 5.293487-0.522182 2.833091 1.23071 6.299966-1.901355 3.280529-2.982578 9.804726-1.826611 13.494809-3.57848 0-7.492793-3.205785-6.188363-4.771306-12.972627 3.877454-1.043339 6.784264-4.809189 10.959669-5.40509 1.863471-0.261091 6.113619-0.111604 8.201321-0.111604 5.256627 0 5.218744 1.901355 8.239205 4.734446 2.572 2.423537 4.659702 2.683603 7.865487 4.398611 3.466876 1.826611 7.344329 4.771306 8.387669 8.64876h9.543635c1.640264-2.423537 2.460396-4.436495 2.721487-6.151503v-2.27405c-1.155967-6.635801-12.413586-8.164462-14.501288-15.955205-0.372694-1.417057-1.081223-5.704065-1.192826-7.67914-0.149487-3.430016-0.149487-5.10714-0.522182-7.717023-0.783272-5.368231 0.372694-4.175404 1.192827-7.306446l-5.554578-2.646744c-3.691107-1.118083-4.548099-1.715008-7.455933-4.13752l-1.192826-0.894876c-3.057322-2.572-0.969619-4.659702-2.199306-7.940231-0.670645-1.751868-2.012959-2.944694-2.310909-3.80271-0.447438-1.417057 0.297951-2.460396 0.29795-5.145023l-2.83309-1.26757c-5.331371-3.168925-0.522182-10.811205-1.938215-15.135073-2.572-3.503736-2.572 1.342314-3.057322-4.548099-0.335834-4.250148-3.914314-3.057322-0.783272-8.760363l2.982578-3.914313a4.679156 4.679156 0 0 1 0.447438-0.261091c1.26757-0.856992 2.087702-1.417057 2.497256-2.982578-1.528661-2.274049-4.063801-4.548099-6.822148-4.771306 3.243669-6.784264-0.559041-6.561057-1.379173-8.089718-0.111604-0.223207-0.522182-2.870974-0.708529-4.175404-0.596925-4.063801-0.372694 0 0.708529-4.100661-2.237189-0.596925-0.484298 0-2.31091-1.118083-2.646744-1.603404-2.796231-4.323868-5.890412-6.411569 2.348793-3.205785 1.938215 0.708529 2.050843-4.100661-2.497256-1.677124-4.137521-0.894876-6.374711-3.168925-1.379174-1.417057-3.355272-3.764826-3.839569-5.704065 2.348793-0.931736 1.863471-3.727966 3.877453-6.37471l1.342314-2.124562c0.074744-0.149487 0.186347-0.335834 0.223207-0.447438l0.372694-0.931736c0.409554-1.789752-0.335834-2.423537-1.043339-3.764826-3.168925 0.074744-4.100661 0.223207-4.771306 2.721487-1.379174-0.931736-2.199306-1.528661-3.914313-1.26757l-2.012959 0.745388c-7.418049 2.53514-8.760363 0.149487-12.115635 2.907835l-1.118083 0.969619c-4.622842 3.430016-4.957653 2.572-4.957652-1.379173 0-2.683603 0-1.006479-0.447438-2.535141l-0.484298-1.603404c-0.335834-1.453917-0.186347-2.944694-1.342314-4.175404-2.050842-2.237189-1.26757-0.633785-2.460396-0.783273-2.162446-0.297951-2.982578-1.342314-5.218744-2.423536 0.410578-4.883933 1.490777-1.23071-0.969619-4.436495-1.043339-1.379174-2.012959-2.833091-2.460396-4.436495 1.417057-0.745389 1.603404-0.931736 3.430015-1.379174-0.931736-3.430016-1.826611-1.342314-2.721487-4.771306-4.323868 0.111604-1.417057 0.447438-4.771305 1.379174 0 2.609884 0.149487 3.057322-1.565521 4.548099l-1.528661 1.192826c-1.789752 1.192826-4.584958 1.677124-7.120098 1.751868l0.783272-4.063801c-1.118083 0.447438-0.670645 0.745389-1.938215 0.297951l-1.30443-1.230711c-2.385653-2.796231-2.237189-0.596925-2.348793-4.548098-1.901355 1.26757-3.355272 3.764826-5.517718 3.877454l-8.798246-1.155967c-0.447438-1.976099-1.192826-3.168925-2.050843-4.771306-1.789752 0.03686-2.310909 0.633785-3.616363 0.03686-1.863471-0.856992 1.715008-0.633785-3.541619-1.715008l-8.537156-2.423536c0.261091 1.118083 0.670645 3.317388 1.155967 4.436495 0.708529 1.640264 3.057322 2.646744 0.29795 2.758347-1.26757 0.074744-2.683603-1.342314-3.690082-2.199306-0.111604-0.111604-0.261091-0.223207-0.372695-0.335834l-0.745388-0.633785c-0.894876-0.708529-1.081223-0.783272-2.087702-1.30443-0.708529 2.646744-3.094181 4.920793-3.691107 7.567536-0.559041 2.497256-1.342314 2.274049-2.012959 5.10714-0.856992 3.616363 0.559041-0.335834-0.186347 3.430016-0.261091 1.379174-1.863471 3.764826 1.043339 6.486314 2.012959 1.938215 1.751868-1.30443 2.796231 2.646743-2.721487 0.074744-1.417057 0.409554-4.10066 1.379174 1.715008 2.310909 1.192826 0.372694 2.310909 2.497256 1.043339 2.012959-0.223207 1.081223 1.30443 3.466876 1.490777 2.310909 3.727966 2.497256 4.584958 5.629321-2.683603 0-7.67914-0.186347-8.871966 2.721488-9.058313 0-4.957653 1.379174-6.971635-4.584959-1.26757-3.764826-5.777785-3.80271-9.432032-4.250148-4.361751-0.559041-2.460396-1.751868-3.578479-5.293487-0.633785-1.976099-4.137521-4.771306-5.927272-7.045355-0.633785-0.783272-1.26757-2.199306-2.050843-2.721487-0.969619-0.708529-0.03686-0.149487-1.417057-0.633785-2.758347-0.969619-6.449454-2.274049-9.282544-0.484298-1.565521 0.969619-1.453917 1.081223-1.603405 3.168925-3.503736-1.863471-3.764826-1.379174-8.871966-1.379173v2.721487c-4.846049 0-5.368231 0.335834-9.021454 3.280528-0.111604 0.074744-0.261091 0.223207-0.372694 0.297951-0.931736 0.670645-0.596925 0.409554-1.901355 0.820132-3.83957 1.23071-2.646744-1.26757-3.057322 2.423537-6.225223-0.522182 0-4.100661-8.871966-4.100661-0.149487 1.192826-0.297951 2.050842-1.342314 2.758347-1.938215 1.342314-1.715008-1.379174-8.201321 3.392132-0.745389-2.758347-0.186347-1.976099-3.392132-2.050842-0.559041 2.609884-1.118083 6.933751-2.050842 10.922809-4.473355-0.111604-2.012959-1.081223-4.995537-2.497257l-3.914313-1.56552c-2.721487-1.043339-0.745389-0.074744-3.131042-0.559042-3.877454-0.783272-3.989057-2.646744-3.764826 1.938215 0.335834 6.747404-0.708529 1.603404-1.938215 6.747404-5.032396-3.392132-1.826611-0.745389-4.100661-5.442974-1.715008 0.409554-2.162446 0.708529-3.653223 1.118083-0.670645 0.186347-1.006479 0.186347-1.603404 0.447438-0.149487 0.074744-0.335834 0.149487-0.447438 0.223207l-0.783272 0.596925c-0.111604 0.074744-0.224231 0.261091-0.335835 0.335834-1.006479 0.856992-2.237189 3.503736-7.530676-0.03686-1.081223 0.708529-1.155967 0.931736-2.348793 1.715008-2.646744 1.715008-3.578479 3.691107-6.597917 4.995537-1.453917 0.633785 0.186347 0.186347-1.976099 0.783272l-1.417057-3.355272c-0.894876-2.609884-1.379174-4.771306-3.541619-6.710545-2.199306-2.012959-0.074744-1.453917-3.914314-1.56552-0.670645 2.460396-0.074744 1.826611-2.721487 2.050842-0.596925-2.199306-0.410578-0.783272-0.670645-1.863471a1.600333 1.600333 0 0 1-0.074744-0.409554c-0.261091-1.26757 0.111604-1.901355-1.229686-3.205785-5.554578-5.479834-8.312925-0.410578-9.618379-6.11362l6.41157-1.751867c1.417057-0.372694 1.603404-0.297951 3.131041-0.297951 0-5.927272 0.261091-1.565521 4.511239-5.032396 0.484298-0.410578 1.826611-2.199306 1.976099-2.796231 0.447438-1.715008-0.820132-3.430016-1.043339-3.764827l2.646743-4.175404c1.006479-1.826611 1.863471-2.796231 4.175405-3.355272-0.074744-3.243669 0.03686-2.721487-2.050843-4.100661 3.131041-4.697586-0.03686-3.466876 5.331371-6.933751 2.050842-1.342314 1.417057 0.745389 1.490777-3.280529h5.442975c0.969619-4.212264 1.751868-1.23071 3.205785-3.541619 0.074744-0.111604 0.447438-1.043339 0.633785-1.417057 1.23071-2.460396 1.528661-0.894876 1.603404-4.584959 4.548099 2.199306 6.225223 1.081223 10.922809 0v-2.721487c4.511239 0.372694 2.497256 1.603404 6.822148-0.670645-0.297951-3.392132-2.087702-5.368231-5.442975-6.151503l2.23719-4.025917c0.261091-0.670645-0.522182-2.423537 3.914313-2.796231 0-2.53514-0.074744-3.914314-1.192826-5.629321-1.23071-1.826611-2.274049-2.348793-2.907834-4.622843-1.715008 0.633785-1.603404 1.081223-2.982578 0.335835-2.124562-1.155967 1.118083-0.223207-1.826612-0.894876-0.856992-0.186347-2.423537-0.111604-3.355272-0.111604-0.261091-2.907834-1.417057-2.721487-2.758347-5.10714-0.559041-0.969619 0.372694-0.03686-0.596925-1.081223-1.006479-1.118083-0.03686 0-0.96962-0.708528l-3.019437-2.087702c-1.30443-0.522182-0.223207-0.372694-2.199306-0.559042-0.633785 1.751868-2.609884 3.503736-4.100661 4.771306-3.727966-0.297951-2.348793-2.423537-4.920793-0.856992-1.342314 0.820132-0.633785 2.310909-1.23071 4.957653-2.944694 0.074744-3.503736 0.856992-5.331371 0.894875-1.640264 0.03686-4.883933-0.223207-6.933751-0.223207v4.100661c-3.80271-0.297951-0.297951-0.783272-7.418049-0.820132l-3.691107-0.074744c-2.53514-0.149487-3.877454-1.528661-6.635801-0.820132-2.124562 0.559041-0.708529 0.372694-2.572 1.863471-2.385653 1.938215-4.771306 0.670645-5.629321 3.951174h-2.050843c-0.708529-3.131041-0.670645-0.894876-0.074743-3.503736 0.484298-2.199306 0.297951-1.751868 0.633785-4.025917l0.820132-7.455933c-4.957653 1.155967-1.155967-0.223207-5.442974-1.379173 0.894876-3.317388 1.155967-0.783272 2.050842-4.100661-2.870974-0.074744-2.460396-0.670645-5.181884-0.409554-2.310909 0.223207-3.764826 0.409554-6.449453 0.409554-1.528661 3.168925 0.633785 5.032396-3.243669 7.67914-1.342314 0.894876-0.745389 0.111604-1.751868 0.969619-1.453917 1.26757-1.006479 1.901355-1.826611 3.616363h-6.151503c-0.149487-1.826611-0.335834-1.863471-0.670645-3.430015-2.572 0.596925-1.901355 0.223207-3.83957 0.447437-5.331371 0.670645-1.081223 0.111604-4.025917 1.901355l-9.841586 2.423537c-0.149487-6.747404-2.721487-0.559041-2.721487-7.492793l-2.870975 2.572c-4.659702-3.094181-4.175404-0.223207-8.723503 0.149487-2.310909-4.809189-1.640264-4.659702-6.822148-4.771305-0.074744-2.944694-1.26757-4.323868-3.243668-4.920793-1.751868-0.559041 0.03686-0.894876-2.199306 0.149487l-0.447438-4.883933a1.660742 1.660742 0 0 1-0.074743-0.372694l-0.820133-2.199306c-1.30443 0.484298-0.856992 0.931736-2.385652 1.192827-3.578479 0.633785-1.901355 0.074744-2.423537-1.192827-2.162446 0.03686-2.385653-0.074744-3.727966 1.043339-1.715008 1.453917-0.708529 0.894876-1.715008 3.057322-3.616363 0-3.80271-0.633785-6.822148-0.670645 0 2.721487-0.894876 3.541619-0.856992 5.666181 0 0.633785 0.186347 1.640264 0.186347 2.535141-1.453917-0.783272 0.03686-0.372694-1.342314-0.708529-2.53514-0.633785-2.237189 2.833091-5.07028 3.951173l-3.80271 3.57848-5.181884 0.223207c-1.640264 0.670645-3.057322 1.417057-3.877453 3.019437-0.372694 0.745389-0.335834 0.03686-0.484298 1.565521-3.578479-0.297951-3.243669-0.894876-2.721487-3.430016-2.646744 0.223207-2.199306 0.670645-5.442975 0.670645 1.715008 7.344329 1.528661 2.087702 1.379174 9.543635 4.473355 0.111604 1.976099 1.192826 4.697586 1.118083 1.863471-0.074744 2.497256-1.565521 4.920793-1.751868 3.616363-0.261091 5.815669 3.691107 7.418049 6.07676-0.931736 0.447438-1.826611 0.745389-2.796231 1.26757-1.565521 0.820132-1.23071 0.969619-3.317389 1.453917 0 8.835106 4.920793 7.64228 2.796231 11.668197-1.751868 3.317388 1.565521-1.677124-0.596925 0.783272-0.894876 1.006479-0.03686-0.03686-1.118083 0.894876-1.640264 1.453917-1.901355 2.982578-3.80271 3.691107 0.074744 3.466876-0.149487 1.863471 1.30443 3.466875l3.430016 3.727967 0.03686 3.057321c-4.659702 0-9.245684 0.745389-11.854544 2.460397l-4.324892 1.23071c-10.922809 1.640264 1.826611-4.548099-9.058314-7.083239 0.223207-2.460396 0.335834-4.511239 0.670645-6.151503h-4.10066v-2.721487c2.237189-0.820132 0.484298 0.894876 2.050842-2.050842l-6.822148-8.871967c-9.059337 0.186347-6.038876 2.683603-14.948726-0.745388-1.30443-0.522182-3.727966-1.155967-5.517718-1.30443-0.074744-3.503736 0.633785-1.976099-1.379173-3.430016-3.466876 1.826611-0.745389 2.237189-3.430016 4.771306-2.012959-0.559041-1.528661-0.372694-2.497256-2.310909l-0.931736-3.168925c-2.944694 0.261091-4.584958 1.453917-6.933751 2.646743a2.184971 2.184971 0 0 1-0.409555 0.223207c-0.111604 0.03686-0.297951 0.149487-0.410578 0.149487l-4.287007-0.633785-4.324892-3.764826c-0.670645 2.460396-0.074744 1.826611-2.721487 2.050842 0 1.751868-0.186347 3.989057-0.297951 4.584959-0.447438 2.050842 0.074744-0.372694-0.522181 1.490777l-2.907835 10.325883c-0.297951 2.646744 1.006479 0.372694-1.155966 3.280529-1.006479 1.342314-1.789752 1.901355-1.863472 3.541619-0.186347 3.280529 2.646744 4.809189 5.368231 5.442975-0.372694 4.398611-1.751868 3.653223-0.670645 8.201321-2.833091 0.223207-1.081223 0-2.721487 0.708529l-1.342314 0.708528-0.447437 0.223207c-0.149487 0.074744-0.335834 0.149487-0.447438 0.223207-4.511239 2.348793-0.820132 0.522182-3.57848 3.243669-1.23071 1.23071-3.094181 1.789752-4.0638 2.758347-1.640264 1.715008-0.409554-0.261091-1.118083 2.310909-0.447438 1.677124 0.335834 0.708529-0.633785 2.758347-2.796231 1.342314-4.025917-0.186347-5.965156 1.528661-0.223207 0.186347-2.310909 4.398611-2.907834 5.293487 2.460396 0.670645 1.826611 0.074744 2.050842 2.721487-2.646744 0.223207-3.616363 0.522182-2.162446 4.80919 0.596925 1.677124 0.223207 1.342314 1.640264 2.53514l3.914314 4.287008c5.032396 8.648759-5.815669 4.584958 2.833091 12.190378l1.453917 1.30443c2.385653 2.833091 0 0.410578 1.192826 3.057322 0.335834 0.745389 4.584958 5.144-2.423536 10.997552-0.596925 0.522182-1.155967 0.783272-1.640265 1.118083-1.603404 1.081223-2.012959 1.30443-2.050842 3.392132-1.640264-1.081223-0.708529-0.820132-2.721487-1.379173-0.410578 1.453917-0.297951 0.708529-0.96962 1.751867-1.417057 2.310909 0.03686-1.453917-1.081222 1.640265l-0.145392-0.040956zM839.182556 720.65759c6.486314 0 21.323436-0.224231 26.355832-2.310909 14.576031-5.965156 5.740925-3.951173 14.240197-8.276065 0.820132-0.410578 1.081223-0.596925 1.715008-1.006479 4.995536-3.168925 5.405091-2.310909 8.760363-6.933752 9.804726-13.383205 8.276065-7.045355 8.276065-26.505319 0-13.010511-5.740925-15.843602-10.065817-19.944262-5.293487-5.032396-9.991073-5.293487-17.894444-5.293487-4.883933 0-13.867503 1.603404-17.894444 2.572-8.499272 2.012959-24.342874 7.381189-30.308029 13.383205l-3.057322 3.094181c-0.111604 0.111604-0.261091 0.223207-0.335834 0.335834l-8.238181 8.798247c-5.293487 8.425552-4.250148 8.984594-1.715008 19.049387 3.430016 13.606412 2.423537 9.729982 15.359303 16.700593l6.635801 3.616363c1.23071 0.670645 6.524197 2.758347 8.164462 2.758347v-0.037884z" fill="#1296db" p-id="1141"></path></svg>